<svg width="107px" height="45px" viewBox="290 174 107 45" version="1.1" xmlns="http://www.w3.org/2000/svg" xmlns:xlink="http://www.w3.org/1999/xlink">
    <defs>
        <polygon id="path-1" points="62.9994527 22.1971561 62.9994527 44.1999871 0.0872233019 44.1999871 0.0872233019 0.194324989 62.9994527 0.194324989 62.9994527 22.1971561"></polygon>
        <polygon id="path-3" points="0.0126410582 0.0250538176 0.0126410582 28.8131535 25.2821165 28.8131535 25.2821165 0.0250538176 0.0126410582 0.0250538176"></polygon>
    </defs>
    <g id="YouTube-logo-dark-(2)" stroke="none" stroke-width="1" fill="none" fill-rule="evenodd" transform="translate(290.000000, 174.000000)">
        <g id="Group-3" transform="translate(42.558229, 0.000000)">
            <mask id="mask-2" fill="white">
                <use xlink:href="#path-1"></use>
            </mask>
            <g id="Clip-2"></g>
            <path d="M62.3711921,9.69035347 C62.3711921,9.69035347 61.7564153,5.37751772 59.8701587,3.47826992 C57.4780491,0.985730874 54.7960379,0.973098697 53.5664843,0.82740759 C44.7630407,0.194324989 31.5573485,0.194324989 31.5573485,0.194324989 L31.5297489,0.194324989 C31.5297489,0.194324989 18.323846,0.194324989 9.52040234,0.82740759 C8.29042737,0.973098697 5.6094696,0.985730874 3.21672796,3.47826992 C1.3302607,5.37751772 0.716326634,9.69035347 0.716326634,9.69035347 C0.716326634,9.69035347 0.0872233019,14.7548037 0.0872233019,19.8196751 L0.0872233019,24.5678999 C0.0872233019,29.6321396 0.716326634,34.6965899 0.716326634,34.6965899 C0.716326634,34.6965899 1.3302607,39.0092151 3.21672796,40.9086734 C5.6094696,43.4018441 8.75372215,43.3224719 10.1535087,43.5835369 C15.186546,44.0641912 31.5434433,44.2126193 31.5434433,44.2126193 C31.5434433,44.2126193 44.7630407,44.1928289 53.5664843,43.5601674 C54.7960379,43.4140552 57.4780491,43.4018441 59.8701587,40.9086734 C61.7564153,39.0092151 62.3711921,34.6965899 62.3711921,34.6965899 C62.3711921,34.6965899 62.9994527,29.6321396 62.9994527,24.5678999 L62.9994527,19.8196751 C62.9994527,14.7548037 62.3711921,9.69035347 62.3711921,9.69035347" id="Fill-1" fill="#0A0A08" mask="url(#mask-2)"></path>
        </g>
        <path d="M39.3979649,35.8162218 L35.3949631,35.8162218 L35.3949631,33.5003227 C33.8774041,35.2385103 32.5909657,36.1164466 31.188651,36.1164466 C29.9582546,36.1164466 29.1039298,35.5364191 28.67603,34.48858 C28.4160455,33.8512867 28.2316968,32.8565028 28.2316968,31.3949599 L28.2316968,14.5520573 L32.2346985,14.5520573 L32.2346985,30.3422785 L32.2346985,31.8160325 C32.3280317,32.4070078 32.5791674,32.6228075 33.0881806,32.6228075 C33.8544395,32.6228075 34.5478015,31.9575128 35.3949631,30.763351 L35.3949631,14.5520573 L39.3979649,14.5520573 L39.3979649,35.8162218" id="Fill-4" fill="#0A0A08"></path>
        <g id="Group-8" transform="translate(0.000000, 7.368770)">
            <mask id="mask-4" fill="white">
                <use xlink:href="#path-3"></use>
            </mask>
            <g id="Clip-6"></g>
            <path d="M21.2791147,22.1313635 C21.489799,24.2367263 20.8362563,25.2814073 19.5932189,25.2814073 C18.3503922,25.2814073 17.6974815,24.2367263 17.9081659,22.1313635 L17.9081659,13.7099122 C17.6974815,11.6045493 18.3506029,10.6177658 19.5936403,10.6177658 C20.8366777,10.6177658 21.4919059,11.6045493 21.2812216,13.7099122 L21.2791147,22.1313635 Z M25.2821165,14.1309847 C25.2821165,11.8586666 24.8253529,10.1522701 24.0180107,9.07811396 C22.9515267,7.62372932 21.2791147,7.02833271 19.5936403,7.02833271 C17.6858939,7.02833271 16.2340684,7.62372932 15.1692699,9.07811396 C14.3490759,10.1522701 13.9091671,11.8771938 13.9091671,14.1495119 L13.9051641,21.7102909 C13.9051641,23.9699768 14.2964048,25.5313139 15.1168095,26.5949432 C16.181608,28.0449066 17.9081659,28.8131535 19.5936403,28.8131535 C21.2791147,28.8131535 23.0360111,28.0449066 24.1022844,26.5949432 C24.9096266,25.5313139 25.2821165,23.9699768 25.2821165,21.7102909 L25.2821165,14.1309847 L25.2821165,14.1309847 Z" id="Fill-5" fill="#0A0A08" mask="url(#mask-4)"></path>
            <path d="M9.48079369,16.8679564 L9.48079369,28.4474519 L5.2671076,28.4474519 L5.2671076,16.8679564 C5.2671076,16.8679564 0.9006754,2.67128435 0,0.0250538176 L4.42437039,0.0250538176 L7.3813246,11.115263 L10.3235309,0.0250538176 L14.7479013,0.0250538176 L9.48079369,16.8679564" id="Fill-7" fill="#0A0A08" mask="url(#mask-4)"></path>
        </g>
        <path d="M92.7010938,20.4384412 C92.7010938,18.4707691 93.2410777,17.9341121 94.514875,17.9341121 C95.7794022,17.9341121 96.282727,18.5187714 96.282727,20.4647583 L96.282727,22.7629723 L92.7010938,22.7669725 L92.7010938,20.4384412 Z M100.293103,25.9210166 L100.29226,21.6170233 C100.29226,19.3684958 99.8491909,17.7235759 99.0517508,16.6595255 C97.982528,15.2198784 96.4637048,14.4579476 94.55027,14.4579476 C92.6031256,14.4579476 91.0843025,15.2198784 89.9811595,16.6595255 C89.1708676,17.7235759 88.698092,19.4617634 88.698092,21.7102909 L88.698092,29.0790608 C88.698092,31.3147456 89.2178502,32.8798723 90.0281421,33.9325537 C91.1308637,35.3700954 92.6496869,36.0876031 94.6450779,36.0876031 C96.6379407,36.0876031 98.2031144,35.3347253 99.2582214,33.8070741 C99.7219376,33.1327264 100.021531,32.3682691 100.150259,31.523387 C100.1846,31.1416847 100.285729,30.2723804 100.285729,29.0441118 L100.285729,28.4474519 L96.2829377,28.4474519 C96.2829377,29.9767875 96.2896796,30.8858832 96.2542846,31.0936825 C96.0366477,32.1124675 95.4892899,32.6228075 94.55027,32.6228075 C93.2410777,32.6228075 92.6880314,31.6446559 92.7010938,29.7018271 L92.7010938,25.9210166 L100.293103,25.9210166 L100.293103,25.9210166 Z" id="Fill-9" fill="#FFFFFF"></path>
        <path d="M82.1668786,29.7106696 C82.1668786,31.8160325 81.6702957,32.6228075 80.570313,32.6228075 C79.942263,32.6228075 79.2187731,32.2998448 78.5808211,31.6625515 L78.5852454,18.8943681 C79.2229868,18.2652857 79.942263,17.9341121 80.570313,17.9341121 C81.6702957,17.9341121 82.1668786,18.5522467 82.1668786,20.6576095 L82.1668786,29.7106696 Z M82.6107904,14.4248934 C81.207633,14.4248934 79.8129029,15.28725 78.5808211,16.8022691 L78.5852454,7.60435998 L74.792928,7.60435998 L74.792928,35.8162218 L78.5852454,35.8162218 L78.5905126,33.6965425 C79.8649419,35.2721961 81.2546156,36.0876031 82.6107904,36.0876031 C84.1296136,36.0876031 85.2394985,35.2751436 85.7485118,33.710859 C86.0032291,32.8190273 86.1698804,31.4459097 86.1698804,29.5001334 L86.1698804,21.0786821 C86.1698804,19.0859561 85.9143203,17.7235759 85.659603,16.8774305 C85.1505897,15.3015665 84.1296136,14.4248934 82.6107904,14.4248934 L82.6107904,14.4248934 Z" id="Fill-10" fill="#FFFFFF"></path>
        <path d="M71.6326634,35.8162218 L67.6296616,35.8162218 L67.6296616,33.5003227 C66.1121026,35.2385103 64.8256642,36.1164466 63.4233495,36.1164466 C62.1929532,36.1164466 61.3386283,35.5364191 60.9107285,34.48858 C60.6507441,33.8512867 60.4663953,32.8565028 60.4663953,31.3949599 L60.4663953,14.7625936 L64.4693971,14.7625936 L64.4693971,30.3422785 L64.4693971,31.8160325 C64.5627302,32.4070078 64.8138659,32.6228075 65.3228792,32.6228075 C66.089138,32.6228075 66.7825,31.9575128 67.6296616,30.763351 L67.6296616,14.7625936 L71.6326634,14.7625936 L71.6326634,35.8162218" id="Fill-11" fill="#FFFFFF"></path>
        <polyline id="Fill-12" fill="#FFFFFF" points="56.4633935 35.8162218 52.2497074 35.8162218 52.2497074 11.6045493 47.825337 11.6045493 47.825337 7.60878125 61.0984482 7.60435998 61.0984482 11.6045493 56.4633935 11.6045493 56.4633935 35.8162218"></polyline>
    </g>
</svg>
