<svg width="140px" height="40px" viewBox="1083 176 140 40" version="1.1" xmlns="http://www.w3.org/2000/svg" xmlns:xlink="http://www.w3.org/1999/xlink">
    <defs></defs>
    <g id="amazon-music" stroke="none" stroke-width="1" fill="none" fill-rule="evenodd" transform="translate(1084.000000, 176.000000)">
        <g id="Group-3" transform="translate(11.247752, 30.285714)" fill="#000105">
            <path d="M38.4878641,3.61423545 C33.8394875,7.10718783 27.0826434,8.9690582 21.2685275,8.97354497 C13.1191838,8.98013492 5.78467732,5.93249471 0.224816184,0.84112963 C-0.21217982,0.442928571 0.178992008,-0.103756614 0.703331668,0.208074074 C6.69713387,3.73790212 14.1027373,5.86701587 21.7569021,5.86098677 C26.9176763,5.85692063 32.5951528,4.76116667 37.8123047,2.51189153 C38.6006194,2.1717381 39.2617373,3.04034921 38.4878641,3.61423545" id="Fill-1"></path>
        </g>
        <path d="M51.6788392,31.6515159 C51.078959,30.8841376 47.7374046,31.291172 46.2378432,31.4763915 C45.7787682,31.5312143 45.7091988,31.1271243 46.11995,30.8375873 C48.7874725,28.9340741 53.1543776,29.4780952 53.6628871,30.1154974 C54.171952,30.753881 53.5319411,35.1988704 51.033968,37.3263016 C50.6486284,37.6514524 50.2864785,37.4708598 50.4549171,37.0491032 C51.0152218,35.6214683 52.2755255,32.4275873 51.6788392,31.6515159" id="Fill-4" fill="#000105"></path>
        <path d="M46.3307413,17.4089577 L46.3293526,15.5625106 C46.3290749,15.2833492 46.5395884,15.092381 46.7888442,15.0922407 L54.9455475,15.085791 C55.2061898,15.0855106 55.4148981,15.2811058 55.415037,15.5552196 L55.4162867,17.1345635 C55.4165644,17.4019471 55.1950809,17.7468677 54.8008541,18.2980397 L50.5851688,24.4231852 C52.1562438,24.3833651 53.8098022,24.6221455 55.2341009,25.4377566 C55.5591748,25.6166667 55.6488791,25.8912011 55.6685974,26.1583042 L55.6701249,28.125754 C55.6702637,28.3991667 55.3787942,28.7090344 55.069967,28.5466693 C52.5622737,27.2157804 49.2282178,27.069119 46.4523836,28.5698042 C46.1703566,28.723336 45.8738881,28.4186561 45.8737493,28.1437011 L45.8722218,26.2682302 C45.8719441,25.9687381 45.8762488,25.4604709 46.1735504,25.0009974 L51.0627123,17.8708148 L46.8016194,17.8741799 C46.5416713,17.8744603 46.331019,17.6875582 46.3307413,17.4089577" id="Fill-5" fill="#000105"></path>
        <path d="M16.5927952,28.9657619 L14.1098192,28.9677249 C13.8758382,28.9553862 13.6854595,28.7754947 13.6646304,28.5469497 L13.6589371,15.622381 C13.6586593,15.3648122 13.8680619,15.1565979 14.1352308,15.1563175 L16.4458801,15.1546349 C16.6905534,15.1662725 16.8853756,15.3505106 16.8963457,15.5859259 L16.8977343,17.272672 L16.9467522,17.272672 C17.5462158,15.6400476 18.681961,14.8786984 20.2077672,14.8774365 C21.76204,14.8763148 22.7355954,15.6361217 23.43004,17.2676243 C24.0304755,15.635 25.39798,14.8733704 26.8556054,14.8723889 C27.9002577,14.8715476 29.0368362,15.302418 29.7308641,16.2853016 C30.5151518,17.3737646 30.360044,18.9470794 30.3611548,20.3326508 L30.3603217,28.4898836 C30.3604605,28.7513783 30.1527243,28.955246 29.8841668,28.9555265 L27.4048012,28.9576296 C27.1576284,28.9408042 26.9625285,28.7421243 26.9623896,28.4925476 L26.9571129,21.6454524 C26.9566963,21.0977857 26.9997433,19.7401164 26.8847662,19.2221746 C26.6966094,18.3538439 26.1438032,18.108754 25.4235305,18.1093148 C24.821984,18.1098757 24.1936374,18.5201349 23.9413267,19.1711376 C23.6874885,19.8225608 23.714983,20.9087804 23.7153996,21.6482566 L23.7208152,28.4953519 C23.720954,28.7567063 23.5028032,28.9605741 23.238967,28.9608545 L20.7611289,28.9630979 C20.5102068,28.9462725 20.3146903,28.7475926 20.3145514,28.4978757 L20.3056643,21.6509206 C20.3045534,20.2057593 20.5354795,18.0861799 18.7755534,18.087582 C16.9963257,18.0888439 17.0631179,20.1527593 17.0642288,21.6533042 L17.0695055,28.5006799 C17.0693666,28.7616138 16.8587143,28.9656217 16.5927952,28.9657619" id="Fill-6" fill="#000105"></path>
        <path d="M62.4608511,17.4787831 C60.6296893,17.4801852 60.5191558,20.0098836 60.5202667,21.5916111 C60.5215165,23.1647857 60.5027702,26.543045 62.4458541,26.5419233 C64.3658871,26.5401005 64.4571189,23.8170503 64.456008,22.1575053 C64.4551748,21.0677804 64.4094895,19.7632513 64.0859431,18.7289101 C63.8032218,17.8333783 63.2513876,17.478082 62.4608511,17.4787831 M62.4366893,14.8437857 C66.1165095,14.8408413 68.1122218,18.0490238 68.1152767,22.1244153 C68.1183317,26.0705317 65.9225205,29.1987937 62.4476593,29.2015979 C58.8387972,29.2044021 56.8653027,25.9986032 56.8621089,22.0021508 C56.8591928,17.9741508 58.8465734,14.8465899 62.4366893,14.8437857" id="Fill-7" fill="#000105"></path>
        <path d="M72.8983487,28.9217354 L70.4257872,28.9236984 C70.1761149,28.9070132 69.9797652,28.7084735 69.9794875,28.4588968 L69.9654625,15.5318042 C69.9871249,15.2986323 70.1920839,15.1125714 70.4418951,15.1124312 L72.7421299,15.1106085 C72.9586144,15.122246 73.1374675,15.2680661 73.184958,15.4694101 L73.1866244,17.446955 L73.2313377,17.446955 C73.9264765,15.6763624 74.8951718,14.834672 76.6121898,14.8334101 C77.7215514,14.8325688 78.8157772,15.2373598 79.508,16.3482566 C80.1591199,17.3870847 80.1605085,19.1268307 80.1614805,20.3773783 L80.1677293,28.5100741 C80.1405125,28.7412831 79.9348591,28.916127 79.6890749,28.9166878 L77.2017942,28.9186508 C76.9711459,28.9060317 76.7913207,28.730627 76.7627153,28.5130185 L76.7571608,21.4948651 C76.75605,20.0791481 76.9181009,18.0125688 75.2020549,18.0138307 C74.598981,18.0142513 74.0432587,18.4249312 73.7677582,19.048172 C73.4211608,19.8381243 73.3751978,20.6273757 73.3758921,21.4973889 L73.3813077,28.4559524 C73.3745035,28.7173069 73.1627403,28.921455 72.8983487,28.9217354" id="Fill-8" fill="#000105"></path>
        <g id="Group-12" transform="translate(0.000000, 14.722222)" fill="#000105">
            <path d="M39.371021,10.7277328 C38.9763776,11.4356614 38.3555295,11.8714392 37.6585854,11.8722804 C36.7029431,11.8729815 36.1468042,11.1391138 36.1461099,10.0433598 C36.1438881,7.90597354 38.0368432,7.50749206 39.8338452,7.50594974 L39.8338452,8.05375661 C39.8346783,9.03818254 39.8581459,9.85393386 39.371021,10.7277328 Z M44.2540729,11.852791 C43.7981918,11.2188942 43.3175934,10.703336 43.3167602,9.51924868 L43.3132887,5.59823016 C43.3119001,3.93532011 43.432015,2.40953704 42.2225345,1.26344709 C41.268975,0.339452381 39.6874855,0.0133201058 38.4807822,0.0141613757 C36.1220869,0.0162645503 33.4860859,0.916002646 32.9371678,3.86914021 C32.8745415,4.19008466 33.1049121,4.35385185 33.3097323,4.40334656 L35.7118911,4.66189683 C35.9351798,4.64969841 36.1029241,4.42634127 36.1413886,4.19737566 C36.3512078,3.18140212 37.1881239,2.68813757 38.1366843,2.6872963 C38.6443606,2.68659524 39.2232727,2.87756349 39.5282118,3.33857937 C39.8809191,3.85624074 39.8312068,4.56781481 39.8319011,5.16315344 L39.8319011,5.48970635 C38.3932997,5.65571693 36.5146474,5.76480159 35.1678332,6.36869312 C33.6141159,7.05292593 32.5218342,8.44298413 32.5232228,10.4848862 C32.5254446,13.1043201 34.1488701,14.4088492 36.2385914,14.4074471 C38.0057383,14.406045 38.9684625,13.9826058 40.330968,12.5722169 C40.7796284,13.2342963 40.9325145,13.556082 41.7545724,14.2487275 C41.9395355,14.3536058 42.1776823,14.3436508 42.339039,14.1891376 L42.344038,14.1955873 C42.8425495,13.7512566 43.7398701,12.9528915 44.2497682,12.5204788 C44.4488951,12.3553095 44.4083477,12.0825979 44.2540729,11.852791 L44.2540729,11.852791 Z" id="Fill-9"></path>
            <path d="M6.84988112,10.753672 C6.45371029,11.4616005 5.82661339,11.8966772 5.1311968,11.8973783 C4.17916484,11.8980794 3.62233167,11.1649127 3.62094306,10.0685979 C3.61955445,7.93107143 5.51167632,7.53329101 7.31076124,7.53188889 L7.31145554,8.07969577 C7.31214985,9.06412169 7.3327013,9.8797328 6.84988112,10.753672 Z M11.7301558,11.8780291 C11.2728861,11.2445529 10.7928432,10.7284339 10.7922877,9.54434656 L10.7893716,5.62332804 C10.787983,3.96041799 10.901016,2.43463492 9.6907023,1.28868519 C8.74422478,0.365391534 7.16342957,0.0386984127 5.95603197,0.0401005291 C3.59525375,0.0415026455 0.96202997,0.941100529 0.410195804,3.89507937 C0.353262737,4.21602381 0.579467532,4.37979101 0.778594406,4.42928571 L3.18783516,4.68699471 C3.41112388,4.6747963 3.57386913,4.45143915 3.61663836,4.2231746 C3.81993107,3.2065 4.66406793,2.71323545 5.61193407,2.71253439 C6.12113786,2.71253439 6.7012997,2.90350265 7.00290609,3.36381746 C7.352003,3.88147884 7.30867832,4.59305291 7.30867832,5.18895238 L7.30937263,5.5156455 C5.86868831,5.68081481 3.99003596,5.79074074 2.64308292,6.39393122 C1.09158741,7.07816402 -0.00138861139,8.46822222 1.29278584e-12,10.5109656 C0.00208291708,13.129418 1.62911888,14.4346481 3.71411888,14.4333862 C5.48334865,14.4319841 6.44399001,14.0084048 7.80496803,12.5981561 C8.25654446,13.2593942 8.40165435,13.581881 9.2300999,14.2746667 C9.41645155,14.379545 9.6545984,14.3694497 9.81526074,14.2143757 L9.82164835,14.2208254 C10.3130779,13.7763545 11.2176194,12.9779894 11.7251568,12.546418 C11.9256723,12.3812487 11.8865135,12.1076958 11.7301558,11.8780291 L11.7301558,11.8780291 Z" id="Fill-11"></path>
        </g>
        <polyline id="Fill-13" fill="#000105" points="95.9573516 11.6012513 84.1091638 11.6103651 84.1074975 9.50705026 95.9552687 9.4977963 95.9573516 11.6012513"></polyline>
        <polyline id="Fill-14" fill="#000105" points="95.9545744 8.44606878 84.1065255 8.45532275 84.1051369 6.35186772 95.9536024 6.34247354 95.9545744 8.44606878"></polyline>
        <g id="Group-18" transform="translate(84.010989, 0.000000)" fill="#000105">
            <polyline id="Fill-15" points="11.9416414 5.29074603 0.0933146853 5.3 0.0916483516 3.19668519 11.9396973 3.18729101 11.9416414 5.29074603"></polyline>
            <polyline id="Fill-17" points="11.9385864 2.13556349 0.0908151848 2.14481746 0.08900999 0.0412222222 11.9378921 0.0321084656 11.9385864 2.13556349"></polyline>
        </g>
        <polyline id="Fill-19" fill="#000105" points="108.831862 11.5910159 96.9842298 11.6004101 96.9822857 9.49681481 108.83089 9.48770106 108.831862 11.5910159"></polyline>
        <polyline id="Fill-20" fill="#000105" points="108.830057 8.43583333 96.9813137 8.44522751 96.9803417 6.34163228 108.828113 6.33237831 108.830057 8.43583333"></polyline>
        <polyline id="Fill-21" fill="#000105" points="121.722619 11.5810608 109.873876 11.5903148 109.871932 9.48671958 121.720675 9.47746561 121.722619 11.5810608"></polyline>
        <polyline id="Fill-22" fill="#000105" points="121.719703 8.4257381 109.87096 8.43513228 109.870127 6.33153704 121.717898 6.32228307 121.719703 8.4257381"></polyline>
        <polyline id="Fill-23" fill="#000105" points="121.717898 5.27055556 109.869294 5.27966931 109.867211 3.1763545 121.715954 3.16710053 121.717898 5.27055556"></polyline>
        <path d="M114.031379,26.2312143 C114.059567,26.1756905 114.145106,26.1186243 114.201206,26.1182037 C114.256056,26.1182037 114.341456,26.1469471 114.425883,26.1754101 C115.66508,26.7927619 116.905943,27.1298307 117.863807,27.1291296 C119.216731,27.1280079 120.116551,26.3114153 120.115579,25.1025106 C120.114607,24.1466878 119.634842,23.5851402 118.311357,22.9687698 C116.422567,22.0977751 115.830047,21.7893095 115.15296,21.2266402 C114.280912,20.5234788 113.856969,19.653045 113.856136,18.5564497 C113.854192,16.2792725 115.628282,14.6466481 118.135836,14.6448254 C119.600682,14.6437037 121.77011,15.3457434 121.77011,15.8238651 C121.77011,15.8792487 121.77011,15.8792487 121.715121,16.019881 L121.208833,17.0612328 C121.152039,17.1459206 121.039145,17.2297672 120.954717,17.2299074 C120.898895,17.2299074 120.841129,17.2020053 120.729068,17.1738228 C119.657754,16.6683598 118.84139,16.4447222 118.080986,16.4454233 C116.728201,16.446545 115.940164,17.1499868 115.941136,18.3298677 C115.941136,18.8642143 116.13943,19.3692566 116.505329,19.7077275 C116.900666,20.0722778 116.900666,20.0722778 119.463349,21.3074021 C121.550293,22.3174868 122.28223,23.2445661 122.283202,24.9321534 C122.285146,27.3223413 120.484672,28.9265026 117.808957,28.928746 C116.400072,28.9300079 114.793865,28.5089524 113.640207,27.8343942 C113.498013,27.7499868 113.469546,27.6946032 113.469546,27.5822937 C113.469546,27.5263492 113.469546,27.5263492 113.498013,27.4684418 L114.031379,26.2312143" id="Fill-24" fill="#000105"></path>
        <path d="M124.656061,15.6115847 C124.655089,15.326955 124.674113,15.2700291 124.955723,15.2697487 L126.448064,15.2697487 C126.701208,15.2694683 126.758974,15.3254127 126.758974,15.6100423 L126.758974,28.4281905 C126.758974,28.7139418 126.541934,28.920754 126.287679,28.920754 L125.097917,28.9217354 C124.843801,28.9218757 124.655922,28.6996402 124.655922,28.413328 L124.655922,15.6115847" id="Fill-25" fill="#000105"></path>
        <path d="M138.245429,17.7402778 C138.160168,17.8824524 138.104207,17.9393783 138.020751,17.9397989 C137.962985,17.9397989 137.879529,17.9104947 137.794269,17.8266481 C136.413711,16.8035238 135.850629,16.5470767 134.891932,16.5477778 C132.638216,16.5496005 131.485529,18.3429074 131.488168,21.8402063 C131.491084,25.3965344 132.533792,27.1596958 134.618931,27.1582937 C135.745095,27.1574524 136.336088,26.8997434 137.941184,25.7608042 C138.026445,25.7040185 138.081572,25.6748545 138.138505,25.6748545 C138.223766,25.6748545 138.278755,25.7327619 138.33666,25.8477354 L138.75852,26.9272249 C138.786015,27.0116323 138.843781,27.1821296 138.843781,27.2105926 C138.843781,27.3534683 138.702421,27.5231243 138.393455,27.7523704 C137.240629,28.6055582 135.831605,29.0899894 134.450354,29.0912513 C131.099634,29.0937751 129.126556,26.5079921 129.122807,22.1841455 C129.119891,17.5195847 131.285431,14.6451058 134.834305,14.6421614 C136.045174,14.6413201 137.230215,15.0102169 138.271257,15.7501138 C138.723527,16.0615238 138.891688,16.2602037 138.891688,16.4601455 L138.863916,16.6307831 L138.245429,17.7402778" id="Fill-26" fill="#000105"></path>
        <path d="M99.3998581,19.2189497 C99.3980529,17.6077778 99.3962478,14.8725291 95.7744715,14.8753333 C94.361004,14.876455 93.1298611,15.8479815 92.5145674,17.0509974 C92.0759051,15.4917037 91.1258172,14.879119 89.5329411,14.8802407 C88.2272298,14.881082 86.8280649,15.5712037 86.2374885,16.7730979 L86.2367942,15.6637434 C86.2365165,15.415709 86.0423886,15.2173095 85.7914665,15.2034286 L84.5399111,15.2044101 C84.2916274,15.2044101 84.0865295,15.3880873 84.0655614,15.6218201 L84.0655614,28.4731984 C84.0657003,28.7222143 84.2752418,28.9193519 84.5256084,28.9356164 L85.7777193,28.9344947 C86.0266973,28.9343545 86.2317952,28.7494153 86.2519301,28.5162434 L86.244987,19.484791 C86.2433207,17.3360476 87.8134236,16.7222011 88.8146124,16.7215 C90.3283377,16.7200979 90.6053656,17.9668598 90.6534116,18.9838148 L90.6534116,28.5646164 C90.6534116,28.8094259 90.9037782,28.9344947 91.1560889,28.9494974 L92.3672358,28.9485159 C92.6152418,28.9480952 92.8096474,28.7583889 92.8301988,28.5646164 L92.8301988,19.4187513 C92.8596374,17.3252513 94.3980799,16.7171534 95.3905205,16.7164524 C96.936045,16.7151905 97.1927992,18.0163545 97.2336244,19.0453677 L97.2412617,28.5532593 C97.2412617,28.7373571 97.4052567,28.8828968 97.6164645,28.9213148 L97.6136873,28.9363175 L98.9325904,28.9351958 C99.181985,28.9350556 99.3866663,28.7822249 99.4066623,28.5873307 L99.3998581,19.2189497" id="Fill-27" fill="#000105"></path>
        <path d="M102.237763,26.9018466 C102.500489,27.6162249 103.522506,29.0754074 105.583484,29.0735847 C107.51407,29.0717619 108.637595,28.3824815 109.217896,27.1794656 L109.218868,28.2885397 C109.218868,28.5368545 109.409386,28.7363757 109.655864,28.7502566 L110.887424,28.7492751 C111.131958,28.7492751 111.323448,28.5648968 111.344554,28.3315847 L111.344554,15.4804868 C111.344554,15.2306296 111.148205,15.0333519 110.900754,15.0176481 L109.669195,15.0186296 C109.425355,15.0189101 109.238725,15.2030079 109.218868,15.436881 L109.218868,24.4676323 C109.21984,26.6160952 107.227738,27.2255952 105.876758,27.2319048 C104.387195,27.2384947 104.116138,25.986545 104.067675,24.9686085 L104.060177,15.3886481 C104.015464,15.1816958 103.820225,15.0183492 103.573885,15.0047487 L102.380929,15.0055899 C102.138339,15.0058704 101.939073,15.1595423 101.918383,15.3531746 L101.918383,24.5347937 C101.918244,24.5350741 101.974066,26.1902725 102.237763,26.9018466" id="Fill-28" fill="#000105"></path>
        <path d="M126.443343,9.55275926 L124.950863,9.55374074 C124.670225,9.55402116 124.640925,9.6050582 124.641758,9.86094444 L124.641758,10.0817778 L124.64273,11.1709418 L124.64273,11.3802778 C124.64273,11.6360238 124.699524,11.6873413 124.952807,11.6870608 L126.44612,11.6860794 C126.726758,11.6857989 126.756058,11.6344815 126.756058,11.3787354 L126.755086,11.1573413 L126.754114,10.0697196 L126.754114,9.85940212 C126.754253,9.60351587 126.69732,9.55247884 126.443343,9.55275926" id="Fill-29" fill="#000105"></path>
    </g>
</svg>
