<svg width="137px" height="27px" viewBox="815 183 137 27" version="1.1" xmlns="http://www.w3.org/2000/svg" xmlns:xlink="http://www.w3.org/1999/xlink">
    <defs>
        <polygon id="path-1" points="13.1804024 0.416952439 0.0501219512 0.416952439 0.0501219512 26.4731707 13.1804024 26.4731707 26.3106829 26.4731707 26.3106829 0.416952439 13.1804024 0.416952439"></polygon>
    </defs>
    <g id="tidal_logo" stroke="none" stroke-width="1" fill="none" fill-rule="evenodd" transform="translate(815.000000, 183.000000)">
        <g id="Group-5">
            <mask id="mask-2" fill="white">
                <use xlink:href="#path-1"></use>
            </mask>
            <g id="Clip-2"></g>
            <polyline id="Fill-1" fill="#000000" mask="url(#mask-2)" points="13.1553415 6.93100701 6.57767073 13.4450616 0 6.93100701 6.57767073 0.416952439 13.1553415 6.93100701"></polyline>
            <polyline id="Fill-3" fill="#000000" mask="url(#mask-2)" points="26.3106829 6.93100701 19.7330122 13.4450616 13.1553415 6.93100701 19.7330122 0.416952439 26.3106829 6.93100701"></polyline>
            <polyline id="Fill-4" fill="#000000" mask="url(#mask-2)" points="26.3106829 19.9591162 19.7330122 26.4731707 13.1553415 19.9591162 19.7330122 13.4450616 26.3106829 19.9591162"></polyline>
        </g>
        <polyline id="Fill-6" fill="#000000" points="39.4660244 6.93100701 32.8883537 13.4450616 26.3106829 6.93100701 32.8883537 0.416952439 39.4660244 6.93100701"></polyline>
        <polyline id="Fill-7" fill="#000000" points="58.2801341 8.88340335 58.2801341 21.2703654 54.8275671 21.2703654 54.8275671 8.88340335 50.0542866 8.88340335 50.0542866 5.73144146 63.05425 5.73144146 63.05425 8.88340335 58.2801341 8.88340335"></polyline>
        <polygon id="Fill-8" fill="#000000" points="70.3378049 21.2703654 73.7895366 21.2703654 73.7895366 5.73144146 70.3378049 5.73144146"></polygon>
        <path d="M93.0422134,13.5004898 C93.0422134,10.7481073 91.1375793,8.81639314 88.312372,8.81639314 L85.6458841,8.81639314 L85.6458841,18.1845864 L88.312372,18.1845864 C91.1375793,18.1845864 93.0422134,16.2975457 93.0422134,13.5451633 L93.0422134,13.5004898 Z M88.312372,21.2703654 L82.1933171,21.2703654 L82.1933171,5.73144146 L88.312372,5.73144146 C93.244372,5.73144146 96.6518293,9.08360671 96.6518293,13.4566436 L96.6518293,13.5004898 C96.6518293,17.8735267 93.244372,21.2703654 88.312372,21.2703654 L88.312372,21.2703654 Z" id="Fill-9" fill="#000000"></path>
        <path d="M110.007659,9.72640838 L107.923421,14.7662383 L112.091896,14.7662383 L110.007659,9.72640838 Z M114.760055,21.2703654 L113.324896,17.785007 L106.690421,17.785007 L105.256098,21.2703654 L101.736701,21.2703654 L108.461396,5.62058506 L111.64414,5.62058506 L118.368835,21.2703654 L114.760055,21.2703654 L114.760055,21.2703654 Z" id="Fill-10" fill="#000000"></path>
        <polyline id="Fill-11" fill="#000000" points="125.270628 21.2703654 125.270628 5.73144146 128.721524 5.73144146 128.721524 18.1622497 136.544726 18.1622497 136.544726 21.2703654 125.270628 21.2703654"></polyline>
    </g>
</svg>
