<svg width="144px" height="45px" viewBox="1 174 144 45" version="1.1" xmlns="http://www.w3.org/2000/svg" xmlns:xlink="http://www.w3.org/1999/xlink">
    <defs>
        <rect id="path-1" x="0" y="0" width="10" height="13"></rect>
    </defs>
    <g id="google-play-music" stroke="none" stroke-width="1" fill="none" fill-rule="evenodd" transform="translate(1.000000, 174.000000)">
        <path d="M38.1173854,19.7604783 L4.61982292,0.618652174 C3.18840625,-0.202173913 1.92184375,-0.125347826 1.11767708,0.655043478 C0.578885417,1.18676087 0.2511875,2.03184783 0.2511875,3.15593478 L0.2511875,41.3748913 C0.2511875,42.4989783 0.578885417,43.3440652 1.11767708,43.8737609 C1.92184375,44.6561739 3.18840625,44.733 4.61982292,43.9121739 L38.1173854,24.7703478 C40.5158125,23.3834348 40.5158125,21.1352609 38.1173854,19.7604783" id="Fill-1" fill="#121513"></path>
        <path d="M34.8022083,26.652587 C35.1922292,25.2495 35.4053333,23.7877826 35.4053333,22.2593478 C35.4053333,13.3333696 28.2120625,6.09756522 19.3340625,6.09756522 C10.4580729,6.09756522 3.26480208,13.3333696 3.26480208,22.2593478 C3.26480208,29.7337174 8.31094792,36.0213261 15.1664688,37.8651522 L34.8022083,26.652587" id="Fill-2" fill="#8B8E8A"></path>
        <path d="M19.3340625,12.1587391 C24.8828125,12.1587391 29.3781042,16.6793478 29.3781042,22.2593478 C29.3781042,27.8373261 24.8828125,32.3599565 19.3340625,32.3599565 C13.7873229,32.3599565 9.29203125,27.8373261 9.29203125,22.2593478 C9.29203125,16.6793478 13.7873229,12.1587391 19.3340625,12.1587391" id="Fill-3" fill="#B6B8B4"></path>
        <path d="M19.3340625,16.9563261 L19.3340625,23.1671087 C18.9822396,22.9669565 18.5942292,22.839587 18.1680208,22.839587 C16.8733125,22.839587 15.8198542,23.8989783 15.8198542,25.2009783 C15.8198542,26.5009565 16.8733125,27.5623696 18.1680208,27.5623696 C19.4607187,27.5623696 20.5905729,26.5009565 20.5905729,25.2009783 L20.5905729,19.4814783 L22.8502812,19.4814783 L22.8502812,16.9563261 L19.3340625,16.9563261" id="Fill-6" fill="#F9F8F5"></path>
        <path d="M113.516052,12.0212609 L116.314552,12.0212609 C117.018198,12.0212609 117.579104,11.7826957 118.005312,11.3096087 C118.42951,10.8345 118.642615,10.3088478 118.642615,9.73669565 C118.642615,9.16252174 118.42951,8.64091304 118.005312,8.16378261 C117.579104,7.68867391 117.018198,7.45213043 116.314552,7.45213043 L113.516052,7.45213043 L113.516052,12.0212609 Z M113.516052,18.9295435 L111.843385,18.9295435 L111.843385,5.84282609 L116.278365,5.84282609 C117.382083,5.84282609 118.335021,6.21078261 119.141198,6.94871739 C119.947375,7.68665217 120.349458,8.61665217 120.349458,9.73669565 C120.349458,10.8567391 119.947375,11.7867391 119.141198,12.5226522 C118.335021,13.2626087 117.382083,13.6285435 116.278365,13.6285435 L113.516052,13.6285435 L113.516052,18.9295435 L113.516052,18.9295435 Z" id="Fill-7" fill="#121513"></path>
        <path d="M113.516052,12.0212609 L113.516052,12.237587 L116.314552,12.237587 C117.066448,12.2396087 117.699729,11.9727391 118.164135,11.4531522 L118.166146,11.4531522 C118.61849,10.9477174 118.857729,10.3634348 118.855719,9.73669565 C118.857729,9.10793478 118.61849,8.52567391 118.166146,8.02023913 L118.164135,8.02023913 C117.699729,7.49863043 117.064438,7.23378261 116.314552,7.23580435 L113.300938,7.23580435 L113.300938,12.237587 L113.516052,12.237587 L113.516052,12.0212609 L113.729156,12.0212609 L113.729156,7.66643478 L116.314552,7.66643478 C116.971958,7.67047826 117.458479,7.87871739 117.84649,8.30732609 C118.242542,8.75413043 118.42549,9.2171087 118.4275,9.73669565 C118.42549,10.2542609 118.240531,10.7212826 117.84649,11.1660652 L117.84649,11.1640435 C117.458479,11.5926522 116.971958,11.8049348 116.314552,11.8069565 L113.516052,11.8069565 L113.516052,12.0212609 L113.729156,12.0212609 L113.516052,12.0212609 Z M113.516052,18.9295435 L113.516052,18.7152391 L112.05649,18.7152391 L112.05649,6.05713043 L116.278365,6.05713043 C117.333833,6.05915217 118.226458,6.40486957 118.996448,7.10641304 C119.760406,7.80997826 120.132333,8.66719565 120.136354,9.73669565 C120.132333,10.8061957 119.760406,11.663413 118.996448,12.3649565 C118.226458,13.0685217 117.333833,13.4122174 116.278365,13.4142391 L113.300938,13.4142391 L113.300938,18.9295435 L113.516052,18.9295435 L113.516052,18.7152391 L113.516052,18.9295435 L113.729156,18.9295435 L113.729156,13.8448696 L116.278365,13.8448696 C117.428323,13.8468913 118.445594,13.4546739 119.285948,12.6823696 L119.283938,12.6823696 C120.134344,11.912087 120.566583,10.9093043 120.564573,9.73669565 C120.566583,8.56408696 120.134344,7.56130435 119.283938,6.789 C118.445594,6.01871739 117.428323,5.62447826 116.278365,5.6265 L111.628271,5.6265 L111.628271,19.1458696 L113.729156,19.1458696 L113.729156,18.9295435 L113.516052,18.9295435 L113.516052,18.9295435 Z" id="Fill-8" fill="#121513"></path>
        <polygon id="Fill-9" fill="#121513" points="122.259354 18.9315652 123.932021 18.9315652 123.932021 5.84282609 122.259354 5.84282609"></polygon>
        <polyline id="Fill-10" fill="#121513" points="123.932021 18.9295435 123.932021 18.7152391 122.472458 18.7152391 122.472458 6.05713043 123.716906 6.05713043 123.716906 18.9295435 123.932021 18.9295435 123.932021 18.7152391 123.932021 18.9295435 124.145125 18.9295435 124.145125 5.6265 122.04424 5.6265 122.04424 19.1458696 124.145125 19.1458696 124.145125 18.9295435 123.932021 18.9295435"></polyline>
        <path d="M129.32999,17.6881957 C130.021573,17.6881957 130.646812,17.429413 131.21174,16.9098261 C131.774656,16.3942826 132.056115,15.7816957 132.056115,15.074087 C131.583667,14.6838913 130.876,14.4898043 129.929094,14.4898043 C129.118896,14.4898043 128.505719,14.6656957 128.093583,15.0195 C127.681448,15.3733043 127.474375,15.7877609 127.474375,16.2628696 C127.474375,16.701587 127.663354,17.0493261 128.039302,17.3040652 C128.41525,17.5608261 128.845479,17.6881957 129.32999,17.6881957 Z M129.056573,19.2247174 C128.111677,19.2247174 127.321583,18.9497609 126.684281,18.4018696 C126.04899,17.8519565 125.729333,17.1281739 125.729333,16.2264783 C125.729333,15.2499783 126.107292,14.4857609 126.859188,13.9318043 C127.609073,13.3758261 128.535875,13.1008696 129.637583,13.1008696 C130.620677,13.1008696 131.426854,13.2828261 132.056115,13.6487609 L132.056115,13.392 C132.056115,12.7349348 131.830948,12.2072609 131.384635,11.811 C130.936313,11.4167609 130.383448,11.2166087 129.728052,11.2166087 C129.243542,11.2166087 128.805271,11.3338696 128.411229,11.5643478 C128.019198,11.7948261 127.747792,12.1122391 127.603042,12.516587 L126.077135,11.8554783 C126.282198,11.3217391 126.688302,10.8243913 127.293438,10.3674783 C127.898573,9.90854348 128.700729,9.6821087 129.693875,9.6821087 C130.831771,9.6821087 131.776667,10.0156957 132.528563,10.686913 C133.280458,11.3561087 133.654396,12.3022826 133.654396,13.5213913 L133.654396,18.9295435 L132.056115,18.9295435 L132.056115,17.6881957 L131.981729,17.6881957 C131.316281,18.7111957 130.341229,19.2247174 129.056573,19.2247174 L129.056573,19.2247174 Z" id="Fill-11" fill="#121513"></path>
        <path d="M129.32999,17.6881957 L129.32999,17.9045217 C130.075854,17.9045217 130.761406,17.6194565 131.35649,17.0695435 L131.354479,17.0695435 C131.955594,16.5216522 132.271229,15.8403261 132.269219,15.074087 L132.269219,14.973 L132.190812,14.9083043 C131.662073,14.4716087 130.902135,14.2755 129.929094,14.2755 C129.08874,14.2755 128.423292,14.4554348 127.954865,14.8557391 C127.504531,15.2358261 127.25725,15.7230652 127.261271,16.2628696 C127.25524,16.7642609 127.494479,17.1989348 127.918677,17.4819783 C128.330812,17.763 128.807281,17.9045217 129.32999,17.9045217 L129.32999,17.4738913 C128.881667,17.4718696 128.499687,17.3566304 128.157917,17.1261522 L128.157917,17.1241304 C127.832229,16.8976957 127.69351,16.6368913 127.68949,16.2628696 C127.6915,15.8524565 127.856354,15.5087609 128.232302,15.1832609 C128.588146,14.8759565 129.147042,14.7041087 129.929094,14.7061304 C130.847854,14.7041087 131.50526,14.8961739 131.919406,15.2398696 L132.056115,15.074087 L131.841,15.074087 C131.83899,15.7230652 131.593719,16.2648913 131.06699,16.7521304 C130.532219,17.2413913 129.967292,17.4718696 129.32999,17.4738913 L129.32999,17.6881957 Z M129.056573,19.2247174 L129.056573,19.0083913 C128.151885,19.0083913 127.422104,18.7516304 126.823,18.2381087 C126.235958,17.724587 125.946458,17.0776304 125.942437,16.2264783 C125.948469,15.306587 126.284208,14.6272826 126.985844,14.1056739 C127.69351,13.5800217 128.570052,13.3151739 129.637583,13.3151739 C130.594542,13.3151739 131.362521,13.4951087 131.947552,13.8347609 L132.269219,14.0227826 L132.269219,13.392 C132.271229,12.686413 132.019927,12.0839348 131.525365,11.6492609 C131.038844,11.2186304 130.427677,11.0002826 129.728052,11.0002826 C129.209365,11.0002826 128.730885,11.1276522 128.302667,11.3783478 L128.302667,11.3783478 C127.874448,11.6290435 127.562833,11.9929565 127.402,12.4417826 L127.603042,12.516587 L127.687479,12.3184565 L126.161573,11.6593696 L126.077135,11.8554783 L126.276167,11.9343261 C126.463135,11.447087 126.839083,10.9800652 127.422104,10.5393261 C127.981,10.1167826 128.730885,9.89843478 129.693875,9.89843478 C130.791562,9.89843478 131.674135,10.2158478 132.385823,10.8486522 C133.087458,11.4733696 133.439281,12.3447391 133.441292,13.5213913 L133.441292,18.7152391 L132.269219,18.7152391 L132.269219,17.4738913 L131.867135,17.4738913 L131.802802,17.5709348 C131.169521,18.5353043 130.284937,19.0043478 129.056573,19.0083913 L129.056573,19.4390217 C130.397521,19.445087 131.465052,18.887087 132.160656,17.8054565 L131.981729,17.6881957 L131.981729,17.9045217 L132.056115,17.9045217 L132.056115,17.6881957 L131.841,17.6881957 L131.841,19.1458696 L133.86951,19.1458696 L133.86951,13.5213913 C133.871521,12.2598261 133.473458,11.2388478 132.671302,10.5271957 C131.877187,9.81756522 130.871979,9.46578261 129.693875,9.46780435 C128.668562,9.46780435 127.816146,9.70232609 127.164771,10.1956304 L127.166781,10.1956304 C126.537521,10.6687174 126.09925,11.1963913 125.876094,11.7786522 L125.803719,11.9727391 L127.725677,12.8036739 L127.804083,12.5893696 C127.93275,12.2335435 128.163948,11.9606087 128.519792,11.7503478 C128.881667,11.5380652 129.277719,11.4329348 129.728052,11.430913 C130.341229,11.4329348 130.833781,11.6128696 131.241896,11.9727391 C131.643979,12.330587 131.83899,12.7834565 131.841,13.392 L131.841,13.6487609 L132.056115,13.6487609 L132.162667,13.4627609 C131.491187,13.0725652 130.644802,12.8845435 129.637583,12.8845435 C128.499687,12.8845435 127.522625,13.1716304 126.730521,13.7579348 C125.928365,14.3442391 125.510198,15.1953913 125.516229,16.2264783 C125.512208,17.1787174 125.864031,17.9793261 126.543552,18.5636087 L126.543552,18.5656304 C127.223073,19.149913 128.069458,19.4410435 129.056573,19.4390217 L129.056573,19.2247174 L129.056573,19.2247174 Z" id="Fill-12" fill="#121513"></path>
        <polyline id="Fill-13" fill="#121513" points="137.747604 22.8800217 136.018646 22.8800217 138.091385 18.3634565 134.418354 9.97526087 136.237781 9.97526087 138.891531 16.4084348 138.927719 16.4084348 141.509094 9.97526087 143.32651 9.97526087 137.747604 22.8800217"></polyline>
        <polyline id="Fill-14" fill="#121513" points="137.747604 22.8800217 137.747604 22.6636957 136.354385 22.6636957 138.324594 18.3654783 134.748063 10.1895652 136.095042 10.1895652 138.748792 16.6247609 139.070458 16.6247609 141.651833 10.1895652 143.000823 10.1895652 137.550583 22.793087 137.747604 22.8800217 137.747604 22.6636957 137.747604 22.8800217 137.942615 22.9649348 143.652198 9.75893478 141.364344 9.75893478 138.728688 16.3275652 138.927719 16.4084348 138.927719 16.1941304 138.891531 16.1941304 138.891531 16.4084348 139.088552 16.3275652 136.380521 9.75893478 134.090656 9.75893478 137.856167 18.3614348 135.684917 23.0943261 137.886323 23.0943261 137.942615 22.9649348 137.747604 22.8800217"></polyline>
        <polyline id="Fill-15" fill="#121513" points="50.8091458 39.0660652 50.8091458 25.9793478 52.4838229 25.9793478 57.0072604 33.9490435 57.0816458 33.9490435 61.6070938 25.9793478 63.2797604 25.9793478 63.2797604 39.0660652 61.6070938 39.0660652 61.6794688 29.1069783 61.6070938 29.1069783 57.536 36.2881957 56.5529063 36.2881957 52.4838229 29.1069783 52.4094375 29.1069783 52.4838229 39.0660652 50.8091458 39.0660652"></polyline>
        <polyline id="Fill-16" fill="#121513" points="50.8091458 39.0660652 51.0242604 39.0660652 51.0242604 26.1936522 52.3591771 26.1936522 56.884625 34.1653696 57.2062917 34.1653696 61.7317396 26.1936522 63.0666563 26.1936522 63.0666563 38.8517609 61.8222083 38.8517609 61.8945833 28.8906522 61.4824479 28.8906522 57.4113542 36.0738913 56.6775521 36.0738913 52.6064583 28.8906522 52.1943229 28.8906522 52.2666979 38.8517609 50.8091458 38.8517609 50.8091458 39.0660652 51.0242604 39.0660652 50.8091458 39.0660652 50.8091458 39.2823913 52.6989375 39.2823913 52.6245521 29.1049565 52.4094375 29.1069783 52.4094375 29.3212826 52.4838229 29.3212826 52.4838229 29.1069783 52.2968542 29.2121087 56.4282604 36.5045217 57.6606458 36.5045217 61.7940625 29.2121087 61.6070938 29.1069783 61.6070938 29.3212826 61.6794688 29.3212826 61.6794688 29.1069783 61.4663646 29.1049565 61.3919792 39.2823913 63.4928646 39.2823913 63.4928646 25.7630217 61.4824479 25.7630217 56.8966875 33.8418913 57.0816458 33.9490435 57.0816458 33.7347391 57.0072604 33.7347391 57.0072604 33.9490435 57.1942292 33.8418913 52.6064583 25.7630217 50.5960417 25.7630217 50.5960417 39.2823913 50.8091458 39.2823913 50.8091458 39.0660652"></polyline>
        <path d="M73.6052604,39.0660652 L72.0049688,39.0660652 L72.0049688,37.8247174 L71.9325938,37.8247174 C71.6792813,38.2513043 71.2892604,38.6152174 70.7705729,38.912413 C70.2478646,39.2116304 69.6970104,39.3612391 69.116,39.3612391 C68.0002188,39.3612391 67.1538333,39.0195652 66.5788542,38.3362174 C66.003875,37.6528696 65.7163854,36.7410652 65.7163854,35.5947391 L65.7163854,30.1117826 L67.3870417,30.1117826 L67.3870417,35.3197826 C67.3870417,36.9897391 68.1208438,37.8247174 69.5884479,37.8247174 C70.2800313,37.8247174 70.8409375,37.5436957 71.2792083,36.9836739 C71.7134583,36.4236522 71.9325938,35.7766957 71.9325938,35.0468478 L71.9325938,30.1117826 L73.6052604,30.1117826 L73.6052604,39.0660652" id="Fill-17" fill="#121513"></path>
        <path d="M73.6052604,39.0660652 L73.6052604,38.8517609 L72.2180729,38.8517609 L72.2180729,37.610413 L71.8119688,37.610413 L71.7496458,37.7135217 C71.5164375,38.1037174 71.1585833,38.4413478 70.6640208,38.726413 C70.1714688,39.0074348 69.6608229,39.144913 69.116,39.144913 C68.0404271,39.1428913 67.2724479,38.8234565 66.7416979,38.1967174 C66.2069271,37.5598696 65.9315,36.7066957 65.9294896,35.5947391 L65.9294896,30.326087 L67.1739375,30.326087 L67.1739375,35.3197826 C67.1739375,36.185087 67.3629167,36.866413 67.7770625,37.3415217 C68.1932188,37.8166304 68.8164479,38.0410435 69.5884479,38.0410435 C70.3383333,38.045087 70.9796563,37.7236304 71.4460729,37.1171087 C71.9104792,36.5206957 72.1477083,35.8211739 72.1477083,35.0468478 L72.1477083,30.326087 L73.3901458,30.326087 L73.3901458,39.0660652 L73.6052604,39.0660652 L73.6052604,38.8517609 L73.6052604,39.0660652 L73.8183646,39.0660652 L73.8183646,29.8954565 L71.7194896,29.8954565 L71.7194896,35.0468478 C71.7174792,35.7342391 71.5164375,36.324587 71.1103333,36.8522609 L71.1103333,36.8502391 C70.7042292,37.3657826 70.2197188,37.6063696 69.5884479,37.610413 C68.8928438,37.6083913 68.416375,37.4163261 68.0987292,37.0564565 C67.7790729,36.6945652 67.6021563,36.1244348 67.6021563,35.3197826 L67.6021563,29.8954565 L65.5012708,29.8954565 L65.5012708,35.5947391 C65.5012708,36.7754348 65.8008229,37.7458696 66.4160104,38.4757174 C67.0352188,39.2156739 67.9600104,39.579587 69.116,39.5755435 C69.7331979,39.5775652 70.3242604,39.4158261 70.8751146,39.1004348 C71.4199375,38.7870652 71.8401146,38.3988913 72.1175521,37.935913 L71.9325938,37.8247174 L71.9325938,38.0410435 L72.0049688,38.0410435 L72.0049688,37.8247174 L71.7898542,37.8247174 L71.7898542,39.2823913 L73.8183646,39.2823913 L73.8183646,39.0660652 L73.6052604,39.0660652" id="Fill-18" fill="#121513"></path>
        <path d="M79.2223646,39.3612391 C78.2292187,39.3612391 77.4069583,39.1166087 76.7596042,38.6293696 C76.1102396,38.1401087 75.6357812,37.533587 75.3322083,36.7996957 L76.8219271,36.1810435 C77.294375,37.301087 78.1025625,37.8611087 79.2404583,37.8611087 C79.7611562,37.8611087 80.189375,37.7458696 80.5210937,37.5153913 C80.8548229,37.2808696 81.0216875,36.9776087 81.0216875,36.6015652 C81.0216875,36.0152609 80.6155833,35.619 79.803375,35.4127826 L78.0040521,34.9740652 C77.4351042,34.8285 76.8963125,34.5495 76.3856667,34.1411087 C75.8770312,33.7327174 75.6237187,33.1807826 75.6237187,32.4873261 C75.6237187,31.6948043 75.9715208,31.0498696 76.6691354,30.558587 C77.3647396,30.0652826 78.1910208,29.8186304 79.1499896,29.8186304 C79.9380729,29.8186304 80.6397083,29.9985652 81.2569062,30.3584348 C81.8761146,30.7162826 82.3184062,31.2318261 82.5857917,31.9010217 L81.1322604,32.5055217 C80.8025521,31.713 80.1250417,31.3167391 79.0957083,31.3167391 C78.5991354,31.3167391 78.1809687,31.4198478 77.8412083,31.628087 C77.5014479,31.8343043 77.3305625,32.1153261 77.3305625,32.4691304 C77.3305625,32.9806304 77.7266146,33.3283696 78.5146979,33.5103261 L80.2758229,33.9308478 C81.1121562,34.1269565 81.7293542,34.4605435 82.1294271,34.9356522 C82.5315104,35.4127826 82.7305417,35.9485435 82.7305417,36.5449565 C82.7305417,37.3496087 82.4028437,38.0208261 81.7494583,38.5545652 C81.0940625,39.0923478 80.2516979,39.3612391 79.2223646,39.3612391" id="Fill-19" fill="#121513"></path>
        <path d="M79.2223646,39.3612391 L79.2223646,39.144913 C78.2613854,39.144913 77.4934062,38.9103913 76.8862604,38.4555 C76.2670521,37.9884783 75.8187292,37.4143043 75.5312396,36.7168043 L75.3322083,36.7996957 L75.4146354,36.9998478 L76.9043542,36.3791739 L76.8219271,36.1810435 L76.6249062,36.2639348 C77.1114271,37.4466522 78.0281771,38.0855217 79.2404583,38.075413 C79.7913125,38.075413 80.2657708,37.9541087 80.6437292,37.6912826 C81.0236979,37.4325 81.2408229,37.0443261 81.2347917,36.6015652 C81.2428333,35.8939565 80.7040417,35.4067174 79.8576562,35.2025217 L79.8556458,35.2025217 L78.0543125,34.7638043 L78.0040521,34.9740652 L78.0563229,34.7658261 C77.5195417,34.6283478 77.0088958,34.3655217 76.5183542,33.9733043 L76.5203646,33.9733043 C76.0599792,33.5992826 75.8408437,33.1282174 75.8368229,32.4873261 C75.8408437,31.7595 76.1403958,31.1994783 76.7917708,30.7365 L76.7917708,30.7344783 C77.4511875,30.2694783 78.2272083,30.0349565 79.1499896,30.0349565 C79.9059062,30.0349565 80.5673333,30.2047826 81.1503542,30.5444348 C81.7293542,30.8820652 82.1354583,31.3531304 82.3867604,31.9818913 L82.5857917,31.9010217 L82.5033646,31.7028913 L81.0498333,32.3073913 L81.1322604,32.5055217 L81.3292812,32.4226304 C80.9754479,31.5451957 80.1732917,31.0923261 79.0957083,31.1024348 C78.5689792,31.1024348 78.1106042,31.2116087 77.728625,31.4441087 C77.342625,31.6725652 77.1114271,32.0425435 77.1174583,32.4691304 C77.1154479,33.1181087 77.6482083,33.5426739 78.4664479,33.720587 L78.4644375,33.720587 L80.2275729,34.1411087 C81.0357604,34.3311522 81.6067187,34.6465435 81.9665833,35.0751522 C82.3385104,35.517913 82.5154271,35.999087 82.5174375,36.5449565 C82.5134167,37.2889565 82.2259271,37.8833478 81.6147604,38.3887826 C81.0035937,38.8881522 80.2175208,39.144913 79.2223646,39.144913 L79.2223646,39.5755435 C80.2878854,39.5775652 81.1865417,39.2965435 81.8841562,38.7223696 C82.5817708,38.1562826 82.9476667,37.4082391 82.9456562,36.5449565 C82.9476667,35.9000217 82.7245104,35.3056304 82.2942812,34.7981739 C81.854,34.2745435 81.1885521,33.9247826 80.3240729,33.7226087 L80.3260833,33.7226087 L78.5629479,33.302087 C77.8030104,33.1120435 77.5476875,32.8411304 77.5456771,32.4691304 C77.5496979,32.1881087 77.6602708,31.9980652 77.9517812,31.8120652 C78.2513333,31.628087 78.6272812,31.5330652 79.0957083,31.5330652 C80.0747812,31.5431739 80.6316667,31.8787826 80.9332292,32.588413 L81.0156562,32.7865435 L82.6662083,32.1011739 L82.8632292,32.0203043 L82.7828125,31.8221739 C82.5013542,31.1105217 82.022875,30.5525217 81.3654687,30.1724348 C80.7140937,29.7923478 79.9702396,29.6023043 79.1499896,29.6043261 C78.1568437,29.6023043 77.2803021,29.8631087 76.5444896,30.3826957 L76.5465,30.3826957 C75.8006354,30.9022826 75.4045833,31.6301087 75.4086042,32.4873261 C75.4045833,33.2333478 75.6940833,33.8661522 76.2529792,34.308913 C76.7837292,34.7334783 77.3506667,35.0286522 77.9497708,35.1823043 L77.9517812,35.1823043 L79.7531146,35.6210217 L79.803375,35.4127826 L79.7511042,35.6210217 C80.5251146,35.8333043 80.8005417,36.1365652 80.8065729,36.6015652 C80.8025521,36.912913 80.6859479,37.1312609 80.3984583,37.3374783 C80.1109687,37.5376304 79.731,37.6447826 79.2404583,37.6447826 C78.1749375,37.6346739 77.4773229,37.1575435 77.0189479,36.0961304 L76.9365208,35.9000217 L75.2517917,36.6015652 L75.0527604,36.6844565 L75.1351875,36.882587 C75.4508229,37.6508478 75.9534271,38.2917391 76.6309375,38.8012174 C77.3225208,39.3208043 78.1950417,39.5775652 79.2223646,39.5755435 L79.2223646,39.3612391" id="Fill-20" fill="#121513"></path>
        <path d="M84.6022396,39.068087 L86.2749063,39.068087 L86.2749063,30.1117826 L84.6022396,30.1117826 L84.6022396,39.068087 Z M86.2749063,27.861587 C86.0437083,28.094087 85.7662708,28.2093261 85.4385729,28.2093261 C85.110875,28.2093261 84.8314271,28.094087 84.6022396,27.861587 C84.3710417,27.6311087 84.2564479,27.350087 84.2564479,27.0205435 C84.2564479,26.691 84.3710417,26.412 84.6022396,26.1795 C84.8314271,25.9490217 85.110875,25.8337826 85.4385729,25.8337826 C85.7662708,25.8337826 86.0437083,25.9490217 86.2749063,26.1795 C86.5040938,26.412 86.6206979,26.691 86.6206979,27.0205435 C86.6206979,27.350087 86.5040938,27.6311087 86.2749063,27.861587 L86.2749063,27.861587 Z" id="Fill-21" fill="#121513"></path>
        <path d="M86.2749063,39.0660652 L86.2749063,38.8517609 L84.8173542,38.8517609 L84.8173542,30.326087 L86.0597917,30.326087 L86.0597917,39.0660652 L86.2749063,39.0660652 L86.2749063,38.8517609 L86.2749063,39.0660652 L86.4880104,39.0660652 L86.4880104,29.8954565 L84.387125,29.8954565 L84.387125,39.2823913 L86.4880104,39.2823913 L86.4880104,39.0660652 L86.2749063,39.0660652 Z M86.2749063,27.861587 L86.1221146,27.7099565 C85.9271042,27.9040435 85.714,27.993 85.4385729,27.9950217 C85.1611354,27.993 84.9480313,27.9040435 84.7530208,27.7099565 L84.7530208,27.7079348 L84.7530208,27.7099565 C84.5600208,27.5138478 84.4735729,27.2995435 84.4715625,27.0205435 C84.4735729,26.7415435 84.5600208,26.5292609 84.7530208,26.3331522 C84.9480313,26.1390652 85.1611354,26.0501087 85.4385729,26.048087 C85.714,26.0501087 85.9271042,26.1390652 86.1221146,26.3331522 C86.3151146,26.5292609 86.4035729,26.7415435 86.4055833,27.0205435 C86.4035729,27.2995435 86.3151146,27.5138478 86.1221146,27.7099565 L86.4256875,28.0152391 C86.6930729,27.7483696 86.8358125,27.4026522 86.8338021,27.0205435 C86.8358125,26.6404565 86.6930729,26.2927174 86.4256875,26.0278696 C86.1603125,25.7589783 85.8165313,25.6154348 85.4385729,25.6174565 C85.0606146,25.6154348 84.7148229,25.7589783 84.4514583,26.0278696 C84.1820625,26.2927174 84.0413333,26.6404565 84.0433438,27.0205435 C84.0413333,27.4006304 84.1820625,27.7483696 84.4514583,28.0152391 C84.7148229,28.2841304 85.0606146,28.4276739 85.4385729,28.4256522 C85.8165313,28.4276739 86.1603125,28.2841304 86.4256875,28.0152391 L86.2749063,27.861587 L86.2749063,27.861587 Z" id="Fill-22" fill="#121513"></path>
        <path d="M92.8007188,39.3612391 C91.4678125,39.3612391 90.370125,38.9063478 89.5096667,37.998587 C88.6512188,37.0908261 88.2189792,35.952587 88.2189792,34.587913 C88.2189792,33.2252609 88.6512188,32.0870217 89.5096667,31.1792609 C90.370125,30.2735217 91.4678125,29.8186304 92.8007188,29.8186304 C93.7938646,29.8186304 94.6181354,30.0612391 95.2735313,30.5484783 C95.9269167,31.0377391 96.4053958,31.6523478 96.7109792,32.3963478 L95.1810521,33.0352174 C94.7206667,31.9131522 93.892375,31.3531304 92.6921563,31.3531304 C91.9523229,31.3531304 91.3009479,31.658413 90.7380313,32.2669565 C90.1751146,32.8775217 89.8916458,33.6518478 89.8916458,34.587913 C89.8916458,35.526 90.1751146,36.3003261 90.7380313,36.9108913 C91.3009479,37.5214565 91.9523229,37.8247174 92.6921563,37.8247174 C93.9386146,37.8247174 94.8010833,37.2646957 95.2735313,36.1426304 L96.76325,36.7815 C96.4616875,37.5153913 95.9731563,38.1279783 95.2996667,38.6212826 C94.6281875,39.114587 93.7938646,39.3612391 92.8007188,39.3612391" id="Fill-23" fill="#121513"></path>
        <path d="M92.8007187,39.3612391 L92.8007187,39.144913 C91.5160625,39.1428913 90.4887396,38.7163043 89.6644687,37.851 C88.8442187,36.9796304 88.4361042,35.9081087 88.4340937,34.587913 C88.4361042,33.2697391 88.8442187,32.1982174 89.6644687,31.3268478 L89.6644687,31.3288696 C90.4887396,30.4635652 91.5160625,30.0369783 92.8007187,30.0349565 C93.7616979,30.0349565 94.5336979,30.2674565 95.146875,30.7223478 C95.7701042,31.1893696 96.2224479,31.7696087 96.5119479,32.4772174 L96.7109792,32.3963478 L96.6285521,32.1961957 L95.098625,32.837087 L95.1810521,33.0352174 L95.3800833,32.9523261 C94.9036146,31.7655652 93.9587187,31.1266957 92.6921562,31.1368043 C91.8920104,31.1347826 91.1742917,31.4764565 90.5812187,32.1213913 C89.9780937,32.7703696 89.6765312,33.6093913 89.6785417,34.587913 C89.6765312,35.5684565 89.9780937,36.4074783 90.5812187,37.0564565 C91.1722812,37.703413 91.8920104,38.0430652 92.6921562,38.0410435 C94.0029479,38.0511522 94.9800104,37.4163261 95.4705521,36.2275435 L95.2735312,36.1426304 L95.1890937,36.3407609 L96.6788125,36.9796304 L96.76325,36.7815 L96.5642187,36.7006304 C96.2767292,37.3961087 95.8183542,37.9743261 95.1750208,38.447413 C94.54375,38.9103913 93.7596875,39.144913 92.8007187,39.144913 L92.8007187,39.5755435 C93.8280417,39.5775652 94.712625,39.3187826 95.4263229,38.7951522 C96.1279583,38.2816304 96.642625,37.6346739 96.9602708,36.8643913 L97.0426979,36.6682826 L95.3579687,35.9445 L95.1609479,35.859587 L95.0765104,36.0597391 C94.6221562,37.1110435 93.8762917,37.5982826 92.6921562,37.610413 C92.0126354,37.6063696 91.4276042,37.3395 90.8948437,36.7653261 C90.370125,36.1951957 90.1087708,35.4835435 90.1067604,34.587913 C90.1087708,33.6943043 90.370125,32.9826522 90.8948437,32.4145435 C91.4276042,31.8403696 92.0126354,31.5714783 92.6921562,31.5674348 C93.8240208,31.5795652 94.5397292,32.0627609 94.9840312,33.1181087 L95.0664583,33.3162391 L96.7913958,32.5944783 L96.9884167,32.511587 L96.908,32.3134565 C96.5903542,31.535087 96.0837292,30.8861087 95.4021979,30.3766304 L95.3981771,30.3746087 L95.4001875,30.3766304 C94.7045833,29.8570435 93.8280417,29.6023043 92.8007187,29.6043261 C91.4195625,29.6023043 90.2535208,30.0814565 89.3548646,31.0316739 C88.4562083,31.9778478 88.0038646,33.1807826 88.005875,34.587913 C88.0038646,35.999087 88.4562083,37.2 89.3548646,38.1461739 C90.2535208,39.098413 91.4195625,39.579587 92.8007187,39.5755435 L92.8007187,39.3612391" id="Fill-24" fill="#121513"></path>
        <path d="M89.7147292,17.6275435 C88.3315625,17.6275435 87.1695417,16.461 87.1695417,14.8577609 C87.1695417,13.2383478 88.3315625,12.0536087 89.7147292,12.0536087 C91.0838229,12.0536087 92.1573854,13.2383478 92.1573854,14.8577609 C92.1573854,16.461 91.0838229,17.6275435 89.7147292,17.6275435 Z M92.0206771,11.2691739 L91.9503125,11.2691739 C91.4999792,10.7313913 90.6355,10.2441522 89.5418333,10.2441522 C87.2559896,10.2441522 85.1611354,12.2638696 85.1611354,14.8577609 C85.1611354,17.4354783 87.2559896,19.437 89.5418333,19.437 C90.6355,19.437 91.4999792,18.9497609 91.9503125,18.3937826 L92.0206771,18.3937826 L92.0206771,19.0548913 C92.0206771,20.8138043 91.0838229,21.753913 89.5780208,21.753913 C88.3476458,21.753913 87.5856979,20.8663696 87.2740833,20.1163043 L85.5250208,20.8501957 C86.027625,22.0672826 87.3605313,23.5653913 89.5780208,23.5653913 C91.9342292,23.5653913 93.9245417,22.172413 93.9245417,18.7758913 L93.9245417,10.5211304 L92.0206771,10.5211304 L92.0206771,11.2691739 Z M95.3097187,19.1600217 L97.318125,19.1600217 L97.318125,5.64469565 L95.3097187,5.64469565 L95.3097187,19.1600217 Z M100.281479,14.702087 C100.229208,12.9249783 101.650573,12.0172174 102.669854,12.0172174 C103.46799,12.0172174 104.14349,12.4195435 104.368656,12.9937174 L100.281479,14.702087 Z M106.513771,13.1696087 C106.133802,12.1405435 104.973792,10.2441522 102.6015,10.2441522 C100.245292,10.2441522 98.2891562,12.1041522 98.2891562,14.8395652 C98.2891562,17.4172826 100.229208,19.437 102.826667,19.437 C104.921521,19.437 106.133802,18.1491522 106.636406,17.4011087 L105.078333,16.3558696 C104.559646,17.1221087 103.847958,17.6275435 102.826667,17.6275435 C101.805375,17.6275435 101.075594,17.1564783 100.609177,16.2325435 L106.722854,13.6912174 L106.513771,13.1696087 Z M57.8094167,11.6533043 L57.8094167,13.6042826 L62.4494583,13.6042826 C62.31275,14.702087 61.9488646,15.5026957 61.3939896,16.0586739 C60.7184896,16.7379783 59.6630208,17.4880435 57.8094167,17.4880435 C54.9506042,17.4880435 52.7170313,15.1711304 52.7170313,12.2962174 C52.7170313,9.42332609 54.9506042,7.10843478 57.8094167,7.10843478 C59.3514063,7.10843478 60.4752292,7.719 61.3075417,8.4993913 L62.6766354,7.12663043 C61.5146146,6.01063043 59.972625,5.15745652 57.8094167,5.15745652 C53.8951354,5.15745652 50.6040833,8.36191304 50.6040833,12.2962174 C50.6040833,16.2325435 53.8951354,19.437 57.8094167,19.437 C59.9223646,19.437 61.5146146,18.7415217 62.7630833,17.4354783 C64.0437188,16.1456087 64.4417813,14.3361522 64.4417813,12.872413 C64.4417813,12.4195435 64.4076042,12.0030652 64.3372396,11.6533043 L57.8094167,11.6533043 Z M69.719125,17.6275435 C68.3339479,17.6275435 67.1397604,16.4791957 67.1397604,14.8395652 C67.1397604,13.1857826 68.3339479,12.0536087 69.719125,12.0536087 C71.1043021,12.0536087 72.2984896,13.1857826 72.2984896,14.8395652 C72.2984896,16.4791957 71.1043021,17.6275435 69.719125,17.6275435 Z M69.719125,10.2441522 C67.1900208,10.2441522 65.1293438,12.1769348 65.1293438,14.8395652 C65.1293438,17.4880435 67.1900208,19.437 69.719125,19.437 C72.2482292,19.437 74.3068958,17.4880435 74.3068958,14.8395652 C74.3068958,12.1769348 72.2482292,10.2441522 69.719125,10.2441522 Z M79.731,17.6275435 C78.3458229,17.6275435 77.149625,16.4791957 77.149625,14.8395652 C77.149625,13.1857826 78.3458229,12.0536087 79.731,12.0536087 C81.1161771,12.0536087 82.3103646,13.1857826 82.3103646,14.8395652 C82.3103646,16.4791957 81.1161771,17.6275435 79.731,17.6275435 Z M79.731,10.2441522 C77.2018958,10.2441522 75.1412188,12.1769348 75.1412188,14.8395652 C75.1412188,17.4880435 77.2018958,19.437 79.731,19.437 C82.2580938,19.437 84.3207812,17.4880435 84.3207812,14.8395652 C84.3207812,12.1769348 82.2580938,10.2441522 79.731,10.2441522 L79.731,10.2441522 Z" id="Fill-25" fill="#121513"></path>
    </g>
</svg>
