<svg width="130px" height="39px" viewBox="8 9 130 39" version="1.1" xmlns="http://www.w3.org/2000/svg" xmlns:xlink="http://www.w3.org/1999/xlink">
    <g id="Spotify_Logo_RGB_Black" stroke="none" stroke-width="1" fill="none" fill-rule="evenodd" transform="translate(8.000000, 9.000000)">
        <path d="M31.0539535,17.2893036 C24.7762791,13.5678214 14.4213953,13.2256429 8.42860465,15.0412321 C7.46627907,15.3328036 6.44860465,14.7902857 6.15697674,13.8296786 C5.86534884,12.8686071 6.40813953,11.8534464 7.37116279,11.5614107 C14.2504651,9.477 25.6862791,9.87953571 32.9132558,14.161875 C33.7790698,14.6749107 34.0630233,15.7908214 33.5497674,16.6534643 C33.0362791,17.5175 31.9174419,17.8023393 31.0539535,17.2893036 Z M30.8483721,22.8013036 C30.4081395,23.5146786 29.4737209,23.7382321 28.76,23.3004107 C23.5262791,20.0889464 15.5455814,19.15875 9.35372093,21.0349286 C8.55069767,21.2770536 7.70255814,20.8250714 7.45883721,20.0251071 C7.21674419,19.2235179 7.66976744,18.3785179 8.47116279,18.1347679 C15.5446512,15.9923214 24.3376744,17.03 30.3488372,20.7175893 C31.0625581,21.1563393 31.2872093,22.0895536 30.8483721,22.8013036 Z M28.4653488,28.0948571 C28.1155814,28.6675536 27.3681395,28.8472321 26.7965116,28.4980893 C22.2230233,25.7079643 16.4667442,25.0776964 9.68767442,26.6235357 C9.0344186,26.7730357 8.38348837,26.3642321 8.2344186,25.712375 C8.08465116,25.0602857 8.49255814,24.4105179 9.1472093,24.2617143 C16.565814,22.5686964 22.9295349,23.2973929 28.0627907,26.4285357 C28.6351163,26.7774464 28.8153488,27.5237857 28.4653488,28.0948571 Z M19.5339535,0.0550178571 C8.77813953,0.0550178571 0.0586046512,8.75851786 0.0586046512,19.495125 C0.0586046512,30.2324286 8.77813953,38.9356964 19.5339535,38.9356964 C30.29,38.9356964 39.0090698,30.2324286 39.0090698,19.495125 C39.0090698,8.75851786 30.29,0.0550178571 19.5339535,0.0550178571 L19.5339535,0.0550178571 Z" id="Fill-1" fill="#151412"></path>
        <path d="M53.0439535,18.00175 C49.6813953,17.2013214 49.0825581,16.6395357 49.0825581,15.4593214 C49.0825581,14.343875 50.1346512,13.5935893 51.6988372,13.5935893 C53.2151163,13.5935893 54.7183721,14.1635 56.2948837,15.33675 C56.3425581,15.3722679 56.4023256,15.3864286 56.4611628,15.3771429 C56.52,15.3683214 56.5718605,15.3362857 56.6065116,15.2875357 L58.2483721,12.97725 C58.315814,12.8820714 58.2974419,12.7511429 58.2065116,12.67825 C56.3304651,11.1755893 54.217907,10.4450357 51.7486047,10.4450357 C48.117907,10.4450357 45.5818605,12.6199821 45.5818605,15.7318571 C45.5818605,19.0689107 47.7695349,20.2505179 51.55,21.1626071 C54.7676744,21.9024464 55.3106977,22.5220357 55.3106977,23.6302857 C55.3106977,24.8580893 54.2125581,25.621375 52.4453488,25.621375 C50.4827907,25.621375 48.8816279,24.9613929 47.0906977,23.4132321 C47.0462791,23.3751607 46.9853488,23.3575179 46.9290698,23.3607679 C46.87,23.3656429 46.815814,23.3930357 46.7781395,23.4383036 L44.9372093,25.6253214 C44.86,25.7160893 44.8697674,25.8516607 44.9588372,25.930125 C47.0427907,27.7870357 49.6053488,28.7680714 52.3709302,28.7680714 C56.2832558,28.7680714 58.8113953,26.6339821 58.8113953,23.3312857 C58.8113953,20.54 57.1406977,18.99625 53.0439535,18.00175" id="Fill-2" fill="#151412"></path>
        <path d="M70.5027907,21.7427321 C70.5027907,24.0996786 69.0483721,25.7444107 66.965814,25.7444107 C64.9069767,25.7444107 63.3539535,24.0249286 63.3539535,21.7427321 C63.3539535,19.4607679 64.9069767,17.7410536 66.965814,17.7410536 C69.0148837,17.7410536 70.5027907,19.423625 70.5027907,21.7427321 Z M67.6627907,14.6913929 C65.9669767,14.6913929 64.5760465,15.3581071 63.4290698,16.7242679 L63.4290698,15.1865536 C63.4290698,15.0651429 63.3304651,14.96625 63.2088372,14.96625 L60.1981395,14.96625 C60.0765116,14.96625 59.9781395,15.0651429 59.9781395,15.1865536 L59.9781395,32.2727321 C59.9781395,32.3941429 60.0765116,32.4930357 60.1981395,32.4930357 L63.2088372,32.4930357 C63.3304651,32.4930357 63.4290698,32.3941429 63.4290698,32.2727321 L63.4290698,26.8795893 C64.5762791,28.1647321 65.9674419,28.7924464 67.6627907,28.7924464 C70.8137209,28.7924464 74.0034884,26.3711964 74.0034884,21.7427321 C74.0034884,17.1133393 70.8137209,14.6913929 67.6627907,14.6913929 L67.6627907,14.6913929 Z" id="Fill-3" fill="#151412"></path>
        <path d="M82.1797674,25.7690179 C80.0213953,25.7690179 78.394186,24.0379286 78.394186,21.7427321 C78.394186,19.4380179 79.9651163,17.7651964 82.13,17.7651964 C84.3023256,17.7651964 85.9404651,19.4962857 85.9404651,21.7931071 C85.9404651,24.0975893 84.3588372,25.7690179 82.1797674,25.7690179 Z M82.1797674,14.6913929 C78.1218605,14.6913929 74.9427907,17.8104643 74.9427907,21.7931071 C74.9427907,25.7323393 78.1,28.8186786 82.13,28.8186786 C86.2023256,28.8186786 89.3911628,25.7100536 89.3911628,21.7427321 C89.3911628,17.7886429 86.224186,14.6913929 82.1797674,14.6913929 L82.1797674,14.6913929 Z" id="Fill-4" fill="#151412"></path>
        <path d="M98.0567442,14.96625 L94.7434884,14.96625 L94.7434884,11.5848571 C94.7434884,11.4634464 94.6453488,11.3647857 94.5237209,11.3647857 L91.5132558,11.3647857 C91.3913953,11.3647857 91.2923256,11.4634464 91.2923256,11.5848571 L91.2923256,14.96625 L89.8446512,14.96625 C89.7232558,14.96625 89.6253488,15.0651429 89.6253488,15.1865536 L89.6253488,17.7696071 C89.6253488,17.8907857 89.7232558,17.9896786 89.8446512,17.9896786 L91.2923256,17.9896786 L91.2923256,24.6735357 C91.2923256,27.3745179 92.6390698,28.7439286 95.2951163,28.7439286 C96.3751163,28.7439286 97.2711628,28.5213036 98.1155814,28.0433214 C98.184186,28.0050179 98.2269767,27.9311964 98.2269767,27.8527321 L98.2269767,25.3929464 C98.2269767,25.3170357 98.1872093,25.2455357 98.1223256,25.2056071 C98.0567442,25.1645179 97.9751163,25.1624286 97.907907,25.195625 C97.327907,25.4869643 96.7672093,25.621375 96.1404651,25.621375 C95.1746512,25.621375 94.7434884,25.1837857 94.7434884,24.2025179 L94.7434884,17.9896786 L98.0567442,17.9896786 C98.1783721,17.9896786 98.2762791,17.8907857 98.2762791,17.7696071 L98.2762791,15.1865536 C98.2762791,15.0651429 98.1783721,14.96625 98.0567442,14.96625" id="Fill-5" fill="#151412"></path>
        <path d="M109.600233,14.9794821 L109.600233,14.5641786 C109.600233,13.3424107 110.069535,12.7975714 111.122093,12.7975714 C111.749767,12.7975714 112.253953,12.922 112.818605,13.1100357 C112.88814,13.1318571 112.960698,13.1209464 113.017209,13.0793929 C113.075349,13.0378393 113.10814,12.9712143 113.10814,12.9006429 L113.10814,10.3679643 C113.10814,10.2713929 113.045814,10.1855 112.952558,10.1569464 C112.356047,9.98005357 111.592791,9.79805357 110.45,9.79805357 C107.668837,9.79805357 106.19907,11.3613036 106.19907,14.3171786 L106.19907,14.95325 L104.752558,14.95325 C104.631163,14.95325 104.531628,15.0521429 104.531628,15.1733214 L104.531628,17.7696071 C104.531628,17.8907857 104.631163,17.9896786 104.752558,17.9896786 L106.19907,17.9896786 L106.19907,28.2991429 C106.19907,28.4205536 106.297209,28.5192143 106.418605,28.5192143 L109.429302,28.5192143 C109.55093,28.5192143 109.65,28.4205536 109.65,28.2991429 L109.65,17.9896786 L112.461163,17.9896786 L116.767442,28.2963571 C116.278605,29.3793036 115.797907,29.5947321 115.141628,29.5947321 C114.611163,29.5947321 114.052558,29.4366429 113.481395,29.1246429 C113.427674,29.0951607 113.364186,29.0902857 113.306047,29.1081607 C113.248605,29.1285893 113.200233,29.1710714 113.175814,29.2270179 L112.155349,31.4618571 C112.106744,31.5674821 112.14814,31.6914464 112.25,31.7462321 C113.315349,32.3221786 114.277209,32.5680179 115.465581,32.5680179 C117.688837,32.5680179 118.917674,31.5340536 120.001163,28.7529821 L125.224651,15.2794107 C125.250698,15.211625 125.243023,15.13525 125.201395,15.0748929 C125.16,15.0154643 125.093256,14.9794821 125.020233,14.9794821 L121.885814,14.9794821 C121.792093,14.9794821 121.707907,15.0389107 121.677209,15.127125 L118.466279,24.2821429 L114.949302,15.1210893 C114.917209,15.0356607 114.835116,14.9794821 114.743721,14.9794821 L109.600233,14.9794821" id="Fill-6" fill="#151412"></path>
        <path d="M102.90814,14.96625 L99.8972093,14.96625 C99.7755814,14.96625 99.6767442,15.0651429 99.6767442,15.1865536 L99.6767442,28.2991429 C99.6767442,28.4205536 99.7755814,28.5192143 99.8972093,28.5192143 L102.90814,28.5192143 C103.029535,28.5192143 103.128605,28.4205536 103.128605,28.2991429 L103.128605,15.1865536 C103.128605,15.0651429 103.029535,14.96625 102.90814,14.96625" id="Fill-7" fill="#151412"></path>
        <path d="M101.417907,8.99576786 C100.225349,8.99576786 99.2572093,9.95985714 99.2572093,11.1505179 C99.2572093,12.3416429 100.225349,13.3066607 101.417907,13.3066607 C102.610233,13.3066607 103.577209,12.3416429 103.577209,11.1505179 C103.577209,9.95985714 102.610233,8.99576786 101.417907,8.99576786" id="Fill-8" fill="#151412"></path>
        <path d="M127.918372,16.2706607 L127.366744,16.2706607 L127.366744,16.9728929 L127.918372,16.9728929 C128.193721,16.9728929 128.35814,16.8384821 128.35814,16.6214286 C128.35814,16.393 128.193721,16.2706607 127.918372,16.2706607 Z M128.276047,17.2723571 L128.875349,18.1099286 L128.37,18.1099286 L127.830465,17.3417679 L127.366744,17.3417679 L127.366744,18.1099286 L126.943721,18.1099286 L126.943721,15.8899464 L127.935581,15.8899464 C128.452093,15.8899464 128.792093,16.1536607 128.792093,16.5979821 C128.792093,16.9619821 128.581395,17.184375 128.276047,17.2723571 Z M127.806279,15.1510357 C126.72093,15.1510357 125.899535,16.0122857 125.899535,17.0669107 C125.899535,18.1208393 126.715116,18.9707143 127.795116,18.9707143 C128.880233,18.9707143 129.702326,18.1099286 129.702326,17.0548393 C129.702326,16.0006786 128.886279,15.1510357 127.806279,15.1510357 Z M127.795116,19.1821964 C126.603488,19.1821964 125.676279,18.2269286 125.676279,17.0669107 C125.676279,15.9066607 126.615581,14.9407143 127.806279,14.9407143 C128.997674,14.9407143 129.925116,15.89575 129.925116,17.0548393 C129.925116,18.2148571 128.986512,19.1821964 127.795116,19.1821964 L127.795116,19.1821964 Z" id="Fill-9" fill="#151412"></path>
    </g>
</svg>
