<svg xmlns="http://www.w3.org/2000/svg" width="146px" height="39px" viewBox="0 0 77 15.82">
	<title>Resurs 1</title>
	<g id="Lager_2" data-name="Lager 2"><g id="Lager_1-2" data-name="Lager 1"><path d="M50.65,4.82a3.09,3.09,0,1,1-3,3.09,3.06,3.06,0,0,1,3-3.09m0-2.06a5.09,5.09,0,0,0-5,5.15,5,5,0,1,0,10.07,0,5.09,5.09,0,0,0-5-5.15"/><path d="M19.45,3.09v.84a4.93,4.93,0,0,0-3.18-1.16,5.09,5.09,0,0,0-5,5.14,5.09,5.09,0,0,0,5,5.15,4.94,4.94,0,0,0,3.18-1.16v.84H21.3V3.09H19.45m-3.07,8a3.2,3.2,0,1,1,3.13-3.2,3.17,3.17,0,0,1-3.13,3.2"/><path d="M70.68,3.09v.84A4.94,4.94,0,0,0,67.5,2.77a5.09,5.09,0,0,0-5,5.14,5.09,5.09,0,0,0,5,5.15,5,5,0,0,0,3.18-1.16v.84h1.85V3.09H70.68m-3.07,8a3.2,3.2,0,1,1,3.13-3.2,3.17,3.17,0,0,1-3.13,3.2"/><path d="M59,3.7a4.61,4.61,0,0,0-2,4.17v4.87h2V7.87c0-3.2,3.23-3,3.23-3V2.78A6.22,6.22,0,0,0,59,3.7"/><path d="M30.85,3.79a4.95,4.95,0,0,0-6,0,5.18,5.18,0,0,0-2,4.12v4.82h2V7.91a3,3,0,1,1,6,0v4.82h2V7.91a5.18,5.18,0,0,0-2-4.12"/><path d="M43.34,0a.94.94,0,0,0-.93.95v3a4.94,4.94,0,0,0-3.18-1.16,5.09,5.09,0,0,0-5,5.14,5.09,5.09,0,0,0,5,5.15,5,5,0,0,0,3.18-1.16v.84h1.85V0h-.93m-4,11.11a3.2,3.2,0,1,1,3.13-3.2,3.17,3.17,0,0,1-3.13,3.2"/><path d="M5,2.77A4.94,4.94,0,0,0,1.85,3.92V3.09H0V15.82H.93a.94.94,0,0,0,.93-.95v-3A4.94,4.94,0,0,0,5,13.06a5.09,5.09,0,0,0,5-5.15A5.09,5.09,0,0,0,5,2.77m-.11,8.35a3.2,3.2,0,0,1,0-6.4,3.2,3.2,0,0,1,0,6.4"/><path d="M75.24,3.59a1.78,1.78,0,0,1-1.76-1.8A1.76,1.76,0,1,1,77,1.8a1.77,1.77,0,0,1-1.76,1.8m0-3.37A1.55,1.55,0,0,0,73.7,1.8a1.54,1.54,0,1,0,3.08,0A1.55,1.55,0,0,0,75.24.22m.49,2.61L75.2,2h-.39v.81h-.24V.77h.82A.6.6,0,0,1,76,1.4a.6.6,0,0,1-.51.61l.54.82ZM75.4,1h-.58v.78h.58a.39.39,0,0,0,0-.78"/></g></g></svg>
