<svg width="134px" height="38px" viewBox="277 345 134 38" version="1.1" xmlns="http://www.w3.org/2000/svg" xmlns:xlink="http://www.w3.org/1999/xlink">
    <defs>
        <polygon id="path-1" points="0.013902439 37.9859259 0.013902439 0 133 0 133 37.9859259"></polygon>
    </defs>
    <g id="shazam" stroke="none" stroke-width="1" fill="none" fill-rule="evenodd" transform="translate(277.000000, 345.000000)">
        <path d="M44.4878049,23.4399012 C44.4878049,22.345642 45.8493171,21.1610741 45.9867195,21.2739012 C46.9388049,22.142037 48.7799512,22.9831975 50.3458293,22.9831975 C51.7527561,22.9831975 52.3887927,22.5729383 52.3887927,21.8220864 C52.3887927,20.910321 51.2314146,20.910321 49.7538171,20.5908395 C47.3030488,20.0888642 44.8274878,19.041284 44.8274878,15.9890864 C44.8274878,12.9591728 47.0523415,11.088963 51.0947073,11.088963 C54.9544878,11.088963 56.6362195,12.4332716 56.6362195,13.8927531 C56.6362195,15.1688025 55.113439,16.2614198 55.0230732,16.1713457 C54.0468902,15.2619259 52.5259634,14.5751111 51.1405854,14.5751111 C49.823561,14.5751111 49.1655122,14.9837284 49.1655122,15.7134691 C49.1655122,16.5809012 50.3458293,16.5140494 51.8885366,16.8544074 C54.7716707,17.4914938 56.9747439,18.7450247 56.9747439,21.4587407 C56.9747439,24.6709136 54.7716707,26.4695802 50.3458293,26.4695802 C46.0309756,26.4695802 44.4878049,24.988284 44.4878049,23.4399012" id="Fill-1" fill="#000105"></path>
        <path d="M58.4514146,24.1454815 L58.4514146,13.4142346 C58.4514146,12.0011975 59.1096951,11.2939753 60.3576707,11.2939753 L61.0159512,11.2939753 C62.3327439,11.2939753 63.0144268,12.0011975 63.0144268,13.4142346 L63.0144268,16.830716 L67.7153049,16.830716 L67.7153049,13.4142346 C67.7153049,12.0011975 68.373122,11.2939753 69.6206341,11.2939753 L70.3025488,11.2939753 C71.5964024,11.2939753 72.2773902,12.0011975 72.2773902,13.4142346 L72.2773902,24.1454815 C72.2773902,25.536 71.5964024,26.2659753 70.3025488,26.2659753 L69.6206341,26.2659753 C68.373122,26.2659753 67.7153049,25.536 67.7153049,24.1454815 L67.7153049,20.6605062 L63.0144268,20.6605062 L63.0144268,24.1454815 C63.0144268,25.536 62.3327439,26.2659753 61.0159512,26.2659753 L60.3576707,26.2659753 C59.1096951,26.2659753 58.4514146,25.536 58.4514146,24.1454815" id="Fill-2" fill="#000105"></path>
        <path d="M88.5504268,24.3511975 L88.5504268,24.1454815 C88.5504268,22.8246296 89.0034146,22.345642 89.7527561,21.5267654 L95.3371341,15.1688025 L90.7284756,15.1688025 C89.412378,15.1688025 88.7295366,14.6891111 88.7295366,13.3919506 L88.7295366,13.1857654 C88.7295366,11.9338765 89.412378,11.4107901 90.7284756,11.4107901 L98.9482927,11.4107901 C100.605,11.4107901 101.263512,12.2983951 101.263512,13.1857654 L101.263512,13.4142346 C101.263512,14.7113951 100.787817,15.2361235 100.061183,16.0118395 L94.3611829,22.3683951 L99.402439,22.3683951 C100.719232,22.3683951 101.400451,22.8706049 101.400451,24.168 L101.400451,24.3511975 C101.400451,25.6056667 100.719232,26.1512716 99.402439,26.1512716 L90.8436341,26.1512716 C89.2084756,26.1512716 88.5504268,25.239037 88.5504268,24.3511975" id="Fill-3" fill="#000105"></path>
        <path d="M82.739439,20.6783333 C82.739439,22.2321111 81.5568049,23.275 80.0261463,23.275 C78.9250732,23.275 78.2123415,22.694679 78.2123415,21.7993333 C78.2123415,20.3025556 80.2244878,19.6804815 81.7384634,19.642716 L82.739439,19.642716 L82.739439,20.6783333 Z M80.1466341,11.0246914 C77.2076585,11.0246914 74.3870854,12.4396049 74.3870854,14.3039506 C74.3870854,16.6214815 77.2470488,16.5644815 77.2470488,16.5644815 C77.5559146,15.3097778 78.5851585,14.6677654 79.9246585,14.6677654 C81.9785122,14.6677654 82.739439,15.6768765 82.739439,17.1328395 L81.734061,17.1328395 C75.8524024,17.1328395 73.636122,19.4871975 73.636122,22.1732346 C73.636122,24.7691975 75.7995732,26.5061728 78.644939,26.5061728 C80.6290488,26.5061728 82.5288171,25.7740864 82.8875,24.3784074 C83.0677683,25.4454568 84.0675854,26.3907654 85.3941098,26.3907654 C86.5704878,26.3907654 87.1289024,25.9894198 87.1805732,25.8453951 L87.1805732,16.8168765 C87.1805732,13.1142222 84.6952805,11.0246914 80.1466341,11.0246914 L80.1466341,11.0246914 Z" id="Fill-4" fill="#000105"></path>
        <path d="M111.438012,20.6783333 C111.438012,22.2321111 110.254915,23.275 108.725183,23.275 C107.623183,23.275 106.911146,22.694679 106.911146,21.7993333 C106.911146,20.3025556 108.923293,19.6804815 110.4375,19.642716 L111.438012,19.642716 L111.438012,20.6783333 Z M108.844976,11.0246914 C105.905768,11.0246914 103.086122,12.4396049 103.086122,14.3039506 C103.086122,16.6214815 105.945622,16.5644815 105.945622,16.5644815 C106.255878,15.3097778 107.284659,14.6677654 108.621841,14.6677654 C110.67778,14.6677654 111.438012,15.6768765 111.438012,17.1328395 L110.433329,17.1328395 C104.55028,17.1328395 102.335854,19.4871975 102.335854,22.1732346 C102.335854,24.7691975 104.498146,26.5061728 107.34328,26.5061728 C109.328317,26.5061728 111.22878,25.7740864 111.586305,24.3784074 C111.7675,25.4454568 112.767317,26.3907654 114.091756,26.3907654 C115.269756,26.3907654 115.828402,25.9894198 115.879378,25.8453951 L115.879378,16.8168765 C115.879378,13.1142222 113.394085,11.0246914 108.844976,11.0246914 L108.844976,11.0246914 Z" id="Fill-5" fill="#000105"></path>
        <g id="Group-9">
            <mask id="mask-2" fill="white">
                <use xlink:href="#path-1"></use>
            </mask>
            <g id="Clip-7"></g>
            <path d="M117.559256,24.1454815 L117.559256,13.481321 C117.559256,12.0227778 118.286817,11.2939753 119.580902,11.2939753 L120.874061,11.2939753 C122.078476,11.2939753 122.487439,11.5911728 122.896402,12.5245185 L125.27928,18.4271852 L127.687415,12.5245185 C128.119085,11.521037 128.594317,11.2939753 129.639085,11.2939753 L130.910232,11.2939753 C132.272902,11.2939753 133,12.0227778 133,13.481321 L133,24.1454815 C133,25.536 132.522683,26.2659753 131.229293,26.2659753 L130.502659,26.2659753 C129.252598,26.2659753 128.730561,25.536 128.730561,24.1454815 L128.730561,17.8358395 L127.18739,22.1629136 C126.983488,22.7338519 126.959854,23.2789877 125.257268,23.2789877 C123.554451,23.2789877 123.599634,22.7544938 123.350317,22.1629136 L121.82939,18.015284 L121.82939,24.1454815 C121.82939,25.536 121.375012,26.2659753 120.058451,26.2659753 L119.330427,26.2659753 C118.080829,26.2659753 117.559256,25.536 117.559256,24.1454815" id="Fill-6" fill="#000105" mask="url(#mask-2)"></path>
            <path d="M28.796122,26.078321 C27.0149878,28.0667531 23.8225244,31.1607037 23.6872073,31.2937037 C23.2680488,31.6985679 22.7284024,31.9012346 22.1906098,31.9012346 C21.6171341,31.9012346 21.0482927,31.6727654 20.6224146,31.2221605 C19.7938293,30.3434691 19.8253415,28.9548272 20.6907683,28.1155432 C20.7222805,28.0838765 23.9066341,24.9988395 25.5821098,23.1241728 C26.3747805,22.2384444 26.7733171,21.1012593 26.702878,19.9274815 C26.6275732,18.684037 26.0357927,17.5168272 25.0334268,16.6409506 C23.7182561,15.4899259 21.120122,15.2340123 19.495622,16.7103827 C18.5277805,17.5871975 17.3551098,18.8791975 17.3442195,18.8923333 C16.5306951,19.7846296 15.1610732,19.843037 14.2787317,19.0234568 C13.3980122,18.2024691 13.338,16.8114815 14.149439,15.9184815 C14.2036585,15.8584321 15.4752683,14.4578272 16.6009024,13.4367531 C19.6865488,10.6331975 24.7414756,10.5773704 27.869061,13.3150123 C29.7628049,14.9712963 30.8854268,17.2264321 31.0323293,19.6612469 C31.1755244,22.0256914 30.3791463,24.3059259 28.796122,26.078321 Z M15.682878,26.2347778 C13.6749024,26.2347778 11.669939,25.5622716 10.1307073,24.2144444 C8.23789024,22.5588642 7.11503659,20.3051358 6.96697561,17.868679 C6.82679268,15.5051728 7.61992683,13.2254074 9.20526829,11.4541852 C10.9850122,9.46364198 14.1774756,6.36945679 14.3123293,6.2385679 C15.1777561,5.39904938 16.5492317,5.43235802 17.3778171,6.30893827 C18.2045488,7.18692593 18.1753537,8.57744444 17.3094634,9.41555556 C17.276561,9.44698765 14.0949878,12.5315556 12.418122,14.4050494 C11.6256829,15.2942963 11.2262195,16.4289012 11.2966585,17.6012716 C11.3724268,18.8461235 11.9646707,20.0133333 12.9656463,20.8899136 C14.282439,22.0437531 16.879878,22.295679 18.5050732,20.822358 C19.4717561,19.9424938 20.6455854,18.6514321 20.6571707,18.6385309 C21.4674512,17.7445926 22.8405488,17.6871235 23.7210366,18.509284 C24.6026829,19.3293333 24.6613049,20.7212593 23.8503293,21.6142593 C23.7965732,21.6712593 22.5233415,23.0709259 21.3990976,24.0934074 C19.8325244,25.5184074 17.7561951,26.2347778 15.682878,26.2347778 Z M18.7689878,0 C8.40402439,0 0,8.5054321 0,18.9997654 C0,29.4917531 8.40402439,38 18.7689878,38 C29.1337195,38 37.5365854,29.4917531 37.5365854,18.9997654 C37.5365854,8.5054321 29.1337195,0 18.7689878,0 L18.7689878,0 Z" id="Fill-8" fill="#000105" mask="url(#mask-2)"></path>
        </g>
    </g>
</svg>
