<svg width="129px" height="31px" viewBox="279 13 129 31" version="1.1" xmlns="http://www.w3.org/2000/svg" xmlns:xlink="http://www.w3.org/1999/xlink">
    <path d="M295.533151,17.8 C296.587684,16.4986129 297.116467,15.0988651 297.116467,13.5962169 L297.116467,13.3011349 C297.116467,13.1982346 297.104345,13.0968474 297.086164,13 C296.349808,13.037831 295.569514,13.2693569 294.743765,13.6885246 C293.918017,14.1076923 293.236206,14.6403531 292.699849,15.2789407 C291.627133,16.5409836 291.087745,17.887768 291.087745,19.32686 L291.087745,19.6143758 C291.087745,19.7051702 291.095321,19.8005044 291.118048,19.9003783 C292.76803,20.0607818 294.242256,19.3601513 295.533151,17.8 Z M301.293693,33.6406053 C299.981586,32.3619168 299.313412,30.7836066 299.29523,28.9011349 C299.252807,26.4617907 300.328552,24.5611602 302.517922,23.1992434 C301.283087,21.437831 299.461895,20.451198 297.055861,20.2287516 C296.19981,20.1485498 295.105883,20.3498108 293.775594,20.8325347 C292.342277,21.3485498 291.53471,21.6088272 291.354409,21.6088272 C290.97714,21.6088272 290.251391,21.3909206 289.175645,20.9505675 C288.10293,20.5102144 287.186273,20.287768 286.431736,20.287768 C285.157508,20.3089533 283.972672,20.6539723 282.88026,21.3258512 C281.784818,21.9931904 280.910585,22.9102144 280.253016,24.0708701 C279.416662,25.5099622 279,27.230517 279,29.2340479 C279,31.0317781 279.307572,32.8310214 279.925747,34.6317781 C280.501499,36.3508197 281.239369,37.8640605 282.133299,39.1654477 C282.928744,40.3442623 283.628737,41.2022699 284.22267,41.7409836 C285.080236,42.5808323 285.954469,42.9848676 286.849913,42.9409836 C287.425664,42.9228247 288.181717,42.710971 289.119585,42.3114754 C289.993818,41.9331652 290.869566,41.7409836 291.743799,41.7409836 C292.560456,41.7409836 293.407417,41.9331652 294.280134,42.3114754 C295.252851,42.710971 296.051327,42.9107188 296.666471,42.9107188 C297.583128,42.8728878 298.439179,42.4824716 299.234625,41.7409836 C299.51341,41.5018916 299.816437,41.1704918 300.143706,40.7513241 C300.47249,40.3321564 300.836122,39.8327869 301.234603,39.2532156 C301.511873,38.8310214 301.784597,38.3815889 302.055806,37.9034048 C302.32247,37.4221942 302.569437,36.9137453 302.786101,36.3689786 C302.8861,36.1540984 302.975493,35.925599 303.055795,35.6986129 C303.134582,35.4686003 303.213369,35.2340479 303.293671,34.9949559 C302.557315,34.6726356 301.889141,34.2201765 301.293693,33.6406053 Z M327.525221,42.5808323 L331.72063,42.5808323 L331.72063,20.6660782 L326.994924,20.6660782 L320.934385,34.2504414 L320.788932,34.2504414 L314.728393,20.6660782 L309.969355,20.6660782 L309.969355,42.5808323 L314.116279,42.5808323 L314.116279,28.3896595 L314.311731,28.3896595 L319.373796,39.6617907 L322.287401,39.6617907 L327.332799,28.3896595 L327.525221,28.3896595 L327.525221,42.5808323 Z M354.196139,35.1523329 L354.196139,20.6660782 L349.553766,20.6660782 L349.553766,34.5076923 C349.553766,37.4448928 347.80227,39.0701135 345.226541,39.0701135 C342.637176,39.0701135 340.88568,37.4630517 340.88568,34.5076923 L340.88568,20.6660782 L336.258458,20.6660782 L336.258458,35.1523329 C336.258458,39.820681 339.634179,43 345.226541,43 C350.808298,43 354.196139,39.820681 354.196139,35.1523329 Z M363.305129,26.5601513 C363.305129,24.874401 364.702083,23.8136192 366.953574,23.8136192 C369.49294,23.8136192 370.762623,25.2421185 370.874743,26.784111 L375.215604,26.784111 C375.168635,22.9162673 371.874731,20.2166456 366.965695,20.2166456 C362.323322,20.2166456 358.659726,22.6075662 358.659726,26.9142497 C358.659726,30.6383354 361.227879,32.3709962 364.317239,33.029256 L367.611142,33.7858764 C369.833845,34.2822194 370.958075,35.0070618 370.958075,36.4960908 C370.958075,38.2015132 369.573242,39.3606557 366.983876,39.3606557 C364.205119,39.3606557 362.743014,37.9124842 362.612713,36.2887768 L358.14155,36.2887768 C358.209731,39.3863808 360.296072,43 366.761152,43 C372.194425,43 375.553479,40.3533417 375.553479,36.0466583 C375.553479,32.0653216 372.836842,30.5112232 369.620211,29.8166456 L366.29449,29.0812106 C364.332391,28.6786885 363.305129,27.8282472 363.305129,26.5601513 Z M380.198882,42.5808323 L384.859437,42.5808323 L384.859437,20.6675914 L380.198882,20.6675914 L380.198882,42.5808323 Z M394.34418,32.9021438 L394.34418,30.427995 C394.34418,26.2226986 396.159312,24.1510719 398.941099,24.1510719 C401.707735,24.1510719 403.16984,26.237831 403.16984,28.4865069 L407.637973,28.4865069 L407.637973,28.0234552 C407.637973,23.7818411 404.34407,20.2499369 398.910796,20.2499369 C393.086618,20.2499369 389.615445,24.0058008 389.615445,30.4143758 L389.615445,32.8870113 C389.615445,39.2925599 393.057831,43 398.889585,43 C404.471341,43 407.637973,39.4196721 407.637973,35.4383354 L407.637973,34.9601513 L403.16984,34.9601513 C403.16984,37.2209332 401.736523,39.0973518 398.972917,39.0973518 C396.14416,39.0973518 394.34418,37.1225725 394.34418,32.9021438 L394.34418,32.9021438 Z" id="apple-music" stroke="none" fill="#000105" fill-rule="evenodd"></path>
</svg>
