
<svg width="124px" height="33px" viewBox="551 12 124 33" version="1.1" xmlns="http://www.w3.org/2000/svg" xmlns:xlink="http://www.w3.org/1999/xlink">
    <g id="itunes" stroke="none" stroke-width="1" fill="none" fill-rule="evenodd" transform="translate(552.000000, 12.000000)">
        <g id="Group-3">
            <mask id="mask-2" fill="white">
                <use xlink:href="#path-1"></use>
            </mask>
            <g id="Clip-2"></g>
            <path d="M21.6802623,17.3508027 C21.6439672,13.3147695 24.9810984,11.3497656 25.1333361,11.257877 C23.2439754,8.49919727 20.3141557,8.12154492 19.2857951,8.09226172 C16.8247869,7.83275195 14.4393934,9.56651953 13.1862049,9.56651953 C11.9078115,9.56651953 9.97812295,8.11750586 7.89922131,8.16092578 C5.22346721,8.20232617 2.71910656,9.75332617 1.34594262,12.1636367 C-1.48809836,17.0771563 0.625081967,24.2979902 3.34015574,28.2704082 C4.69819672,30.2152168 6.28509836,32.3872227 8.36198361,32.3104805 C10.3945082,32.2266699 11.1536803,31.0129316 13.606623,31.0129316 C16.036377,31.0129316 16.7491721,32.3104805 18.8684016,32.2620117 C21.0491311,32.2266699 22.4222951,30.3081152 23.7329508,28.3451309 C25.3027131,26.1145586 25.9328361,23.9193281 25.958041,23.8072441 C25.9076311,23.7890684 21.7226066,22.1906094 21.6802623,17.3508027" id="Fill-1" fill="#1A1918"></path>
        </g>
        <path d="M17.6777213,5.47999805 C18.7706066,4.10974609 19.5186885,2.24773828 19.311,0.357457031 C17.7291393,0.427130859 15.7500492,1.45305273 14.6117951,2.79301172 C13.6035984,3.97241797 12.7032787,5.90712891 12.9361721,7.7257168 C14.7126148,7.85799609 16.5374508,6.82803516 17.6777213,5.47999805" id="Fill-4" fill="#1A1918"></path>
        <path d="M31.0695984,31.8651738 L34.7585902,31.8651738 L34.7585902,15.2333242 L31.0695984,15.2333242 L31.0695984,31.8651738 Z M35.1689262,10.2713359 C35.1689262,10.9327324 34.9521639,11.4699277 34.5196475,11.8809023 C34.0871311,12.2908672 33.5295984,12.4948398 32.8450328,12.4948398 C32.2300328,12.4948398 31.7128279,12.2848086 31.2903934,11.8617168 C30.8699754,11.4406445 30.6582541,10.9105176 30.6582541,10.2713359 C30.6582541,9.63316406 30.8750164,9.10808594 31.3075328,8.69711133 C31.7400492,8.28714648 32.2754016,8.0811543 32.9145984,8.0811543 C33.5517787,8.0811543 34.0871311,8.28714648 34.5196475,8.69711133 C34.9521639,9.10808594 35.1689262,9.63316406 35.1689262,10.2713359 L35.1689262,10.2713359 Z" id="Fill-5" fill="#1A1918"></path>
        <polyline id="Fill-6" fill="#1A1918" points="54.6432541 11.9142246 48.0496475 11.9142246 48.0496475 31.8651738 44.3586393 31.8651738 44.3586393 11.9142246 37.7983033 11.9142246 37.7983033 8.80010742 54.6432541 8.80010742 54.6432541 11.9142246"></polyline>
        <path d="M69.9849836,31.8651738 L66.7406066,31.8651738 L66.5339262,29.3326816 L66.466377,29.3326816 C65.3049344,31.2724414 63.5516803,32.2408066 61.2045984,32.2408066 C59.5652705,32.2408066 58.2546148,31.7268359 57.2746475,30.7009141 C56.1132049,29.4457754 55.5324836,27.5534746 55.5324836,25.0209824 L55.5324836,15.2333242 L59.2234918,15.2333242 L59.2234918,24.4050254 C59.2234918,27.6009336 60.316377,29.1943437 62.5031557,29.1943437 C64.1424836,29.1943437 65.2817459,28.3956191 65.9199344,26.802209 C66.0792295,26.3882051 66.158877,25.9216934 66.158877,25.3966152 L66.158877,15.2333242 L69.8498852,15.2333242 L69.8498852,27.0718164 C69.8498852,28.646041 69.8932377,30.2445 69.9849836,31.8651738" id="Fill-7" fill="#1A1918"></path>
        <path d="M89.426041,31.8651738 L85.7350328,31.8651738 L85.7350328,22.3400547 C85.7350328,19.404666 84.618959,17.935457 82.3868115,17.935457 C81.2939262,17.935457 80.4046967,18.3423926 79.7221475,19.1481855 C79.0395984,19.955998 78.6958033,20.908207 78.6958033,21.9977441 L78.6958033,31.8651738 L75.0068115,31.8651738 L75.0068115,19.9913398 C75.0068115,18.5312188 74.9614426,16.9438672 74.8696967,15.2333242 L78.1160902,15.2333242 L78.2874836,17.8344805 L78.3893115,17.8344805 C78.8208197,17.0246484 79.4600164,16.3541641 80.303877,15.8270664 C81.3050164,15.2030313 82.4210902,14.8920234 83.6510902,14.8920234 C85.2006885,14.8920234 86.4871475,15.3928672 87.5124836,16.3955645 C88.7868443,17.6284883 89.426041,19.4662617 89.426041,21.9068652 L89.426041,31.8651738" id="Fill-8" fill="#1A1918"></path>
        <path d="M104.733492,21.8048789 C104.754664,20.7072637 104.515721,19.7641426 104.014648,18.965418 C103.377467,17.935457 102.3975,17.4255254 101.076762,17.4255254 C99.8689426,17.4255254 98.8899836,17.9263691 98.1378689,18.9310859 C97.523877,19.7267813 97.1589098,20.6880781 97.0459918,21.8048789 L104.733492,21.8048789 Z M108.252098,22.7631465 C108.252098,23.4235332 108.205721,23.9819336 108.114984,24.4383477 L97.0459918,24.4383477 C97.0903525,26.0802266 97.6257049,27.336375 98.651041,28.2027539 C99.583623,28.9782539 100.791443,29.3670137 102.272484,29.3670137 C103.911811,29.3670137 105.403943,29.1034648 106.749885,28.5783867 L107.32859,31.1442012 C105.756811,31.8318516 103.899713,32.1731523 101.76032,32.1731523 C99.1853852,32.1731523 97.1639508,31.4148184 95.6960164,29.8951211 C94.2270738,28.3784531 93.4910902,26.3447852 93.4910902,23.7880586 C93.4910902,21.2798008 94.1746475,19.1916055 95.5407541,17.526502 C96.9764262,15.7452754 98.9131721,14.8576914 101.349984,14.8576914 C103.740418,14.8576914 105.552148,15.7452754 106.783156,17.526502 C107.761107,18.9401738 108.252098,20.6880781 108.252098,22.7631465 L108.252098,22.7631465 Z" id="Fill-9" fill="#1A1918"></path>
        <path d="M122.566475,27.0859531 C122.566475,28.6329141 121.997852,29.8749258 120.85859,30.8049199 C119.719328,31.7399629 118.147549,32.2074844 116.143254,32.2074844 C114.251877,32.2074844 112.644811,31.8318516 111.32609,31.0765469 L112.111475,28.3410918 C113.386844,29.1176016 114.741861,29.5023223 116.176525,29.5023223 C118.065885,29.5023223 119.01359,28.8086133 119.01359,27.4171563 C119.01359,26.802209 118.807918,26.2942969 118.397582,25.8934199 C117.987246,25.4945625 117.25832,25.1017637 116.210803,24.7119941 C113.250738,23.6153887 111.769697,22.0209688 111.769697,19.9226758 C111.769697,18.4837598 112.315131,17.2861777 113.409025,16.3279102 C114.502918,15.3706523 115.94968,14.8920234 117.749311,14.8920234 C119.388639,14.8920234 120.789025,15.2262559 121.951475,15.89775 L121.165082,18.5524238 C120.094377,17.9152617 118.967213,17.5941563 117.782582,17.5941563 C117.008287,17.5941563 116.403369,17.7759141 115.972869,18.1414492 C115.538336,18.5049648 115.321574,18.9714766 115.321574,19.5399746 C115.321574,20.1094824 115.550434,20.5770039 116.006139,20.9415293 C116.393287,21.2838398 117.145402,21.6564434 118.260467,22.0653984 C121.129795,23.1589746 122.566475,24.8311465 122.566475,27.0859531" id="Fill-10" fill="#1A1918"></path>
    </g>
</svg>
